<svg width="100" height="94" viewBox="0 0 100 94" fill="none" xmlns="http://www.w3.org/2000/svg">
<g clip-path="url(#clip0_549_67884)">
<path d="M81.4221 38.405C80.1259 38.4092 78.8382 38.1908 77.6134 37.7591C72.2911 36.0202 67.5058 30.7041 60.865 23.4008L58.5701 20.8669C54.6638 16.5942 50.7574 14.7559 46.9488 15.4515C39.1849 16.7929 34.3509 28.22 34.302 28.3194L33.5208 30.108L33.4231 28.1703C32.4953 12.5202 39.7221 7.99907 44.1655 6.70732C52.9547 4.07413 64.3807 9.83734 69.6055 19.4758C74.293 28.0213 81.3733 30.4557 86.5003 31.0022C89.9302 31.3172 93.3878 30.9974 96.7056 30.0583L99.0006 29.2633L97.0962 30.8532C90.6996 36.0699 85.8655 38.405 81.4221 38.405ZM48.5113 14.4082C52.0758 14.4082 55.6403 16.3458 59.2049 20.2707L61.4998 22.7549C68.0918 30.0086 72.8282 35.2253 77.9064 36.9145C82.9846 38.6037 87.8187 36.8648 94.8989 31.4494C92.1198 32.0184 89.2736 32.169 86.4515 31.8965C81.0803 31.35 73.6583 28.8162 68.8242 19.923C63.9901 11.0297 52.8083 5.06778 44.4096 7.55193C40.4545 8.74432 33.9602 12.7189 34.2532 26.3321C36.011 22.9039 40.4545 15.6502 46.8023 14.5572C47.3668 14.4584 47.9385 14.4085 48.5113 14.4082Z" fill="url(#paint0_linear_549_67884)"/>
<path d="M90.992 94.0005L89.3318 91.3176C89.2342 91.1686 80.1031 76.4127 69.8002 65.6316C67.1169 62.8868 63.6408 61.0878 59.8803 60.4977C56.1199 59.9077 52.2726 60.5577 48.9013 62.3525C39.575 67.1221 24.3891 71.1961 4.80867 63.3958L1 61.9054L5.05281 62.5015C5.24813 62.5512 26.0005 65.6812 40.6004 54.602C48.3642 48.6897 53.1006 39.8462 54.6143 28.27L55.2003 24.0967L55.4933 28.3197C55.5421 28.4688 57.007 45.2616 70.7768 53.9561C81.7633 60.9117 90.0643 90.6717 90.1619 90.9698L90.992 94.0005ZM57.2511 59.3715C59.7063 59.3602 62.1387 59.8513 64.4036 60.8158C66.6685 61.7803 68.7196 63.1984 70.435 64.9857C78.15 73.0343 85.1814 83.269 88.3553 88.1379C85.9626 80.5364 78.9312 60.2161 70.2885 54.751C59.6437 47.9941 56.128 36.5174 55.0538 31.2013C53.1495 41.6844 48.4619 49.7827 41.1375 55.3472C29.858 63.8927 15.1604 64.1411 8.42202 63.7436C14.2044 65.775 20.2739 66.8323 26.3911 66.8736C34.0766 66.8812 41.6553 65.0427 48.5107 61.5079C51.2213 60.114 54.214 59.3825 57.2511 59.3715Z" fill="url(#paint1_linear_549_67884)"/>
<path d="M74.3908 15.6998C72.8649 15.6998 71.3733 15.2394 70.1046 14.3768C68.8358 13.5143 67.847 12.2883 67.2631 10.8539C66.6791 9.41954 66.5263 7.84119 66.824 6.31846C67.1217 4.79573 67.8565 3.39701 68.9355 2.29918C70.0144 1.20136 71.3891 0.453727 72.8857 0.150837C74.3822 -0.152053 75.9334 0.00340127 77.3432 0.597541C78.7529 1.19168 79.9578 2.19782 80.8056 3.48873C81.6533 4.77964 82.1058 6.29734 82.1058 7.8499C82.1058 9.93182 81.2929 11.9285 79.8461 13.4006C78.3993 14.8728 76.4369 15.6998 74.3908 15.6998ZM74.3908 0.943978C73.0367 0.944013 71.7131 1.35324 70.5878 2.11975C69.4626 2.88626 68.5865 3.97552 68.0705 5.24939C67.5546 6.52326 67.4221 7.92434 67.6899 9.27493C67.9576 10.6255 68.6135 11.8648 69.5745 12.8355C70.5354 13.8063 71.758 14.4648 73.0873 14.7275C74.4166 14.9903 75.7926 14.8454 77.0408 14.3114C78.2891 13.7773 79.3533 12.878 80.0986 11.7277C80.8438 10.5773 81.2365 9.22766 81.2269 7.8499C81.214 6.01378 80.488 4.25733 79.2074 2.96363C77.9268 1.66993 76.1954 0.943931 74.3908 0.943978Z" fill="url(#paint2_linear_549_67884)"/>
</g>
<defs>
<linearGradient id="paint0_linear_549_67884" x1="96.8087" y1="50.044" x2="35.0906" y2="-8.33061" gradientUnits="userSpaceOnUse">
<stop stop-color="#682CA4"/>
<stop offset="1" stop-color="#24C2EE"/>
</linearGradient>
<linearGradient id="paint1_linear_549_67884" x1="87.9878" y1="119.162" x2="-29.8895" y2="48.4755" gradientUnits="userSpaceOnUse">
<stop stop-color="#682CA4"/>
<stop offset="1" stop-color="#24C2EE"/>
</linearGradient>
<linearGradient id="paint2_linear_549_67884" x1="81.5907" y1="21.3508" x2="58.8729" y2="10.9506" gradientUnits="userSpaceOnUse">
<stop stop-color="#682CA4"/>
<stop offset="1" stop-color="#24C2EE"/>
</linearGradient>
<clipPath id="clip0_549_67884">
<rect width="100" height="94" fill="white"/>
</clipPath>
</defs>
</svg>
