<svg width="100" height="123" viewBox="0 0 100 123" fill="none" xmlns="http://www.w3.org/2000/svg">
	<g clip-path="url(#clip0_549_67886)">
		<path d="M98.9433 22.2315C98.7679 21.7363 98.5233 21.2685 98.2168 20.8421C97.9452 20.4384 97.6355 20.0617 97.2921 19.7173C96.944 19.3324 96.5438 18.9984 96.1032 18.7248L94.7822 17.997C94.3195 17.795 93.83 17.6613 93.329 17.6C92.8341 17.4646 92.323 17.3978 91.8099 17.4015H72.7874L72.6553 16.806L70.7399 6.81519C70.705 6.54369 70.6385 6.27722 70.5417 6.02121C70.483 5.7689 70.3943 5.52456 70.2775 5.2934C70.195 5.03918 70.0842 4.79505 69.9473 4.56559C69.8649 4.31876 69.7296 4.09294 69.551 3.90394C69.4356 3.65864 69.2792 3.43487 69.0886 3.2423L68.5602 2.64682L68.0318 2.1175L67.3713 1.65435L66.7108 1.25736L65.9843 0.926536L65.2577 0.661878L64.5312 0.463384L63.7386 0.331055H61.3608L6.80328 10.9174L6.01068 11.1159L5.28413 11.3805L4.55758 11.7114L3.89707 12.1084L3.23657 12.5715L2.64212 13.1008C2.50109 13.3092 2.32177 13.4889 2.11372 13.6301C1.97544 13.8614 1.82093 14.0825 1.65137 14.2918L1.25507 14.9534C1.13254 15.1902 1.02231 15.4331 0.924815 15.6812C0.797704 15.9078 0.708457 16.1536 0.660614 16.4091L0.462464 17.203C0.380863 17.4373 0.336292 17.6828 0.330363 17.9308C0.330363 18.1955 0.264313 18.4602 0.264313 18.7248C0.253659 18.9912 0.275844 19.2579 0.330363 19.5188C0.341972 19.7878 0.386333 20.0545 0.462464 20.3128L17.1732 107.65C17.2598 108.097 17.37 108.538 17.5034 108.973C17.6975 109.406 17.9181 109.825 18.1639 110.23C18.3991 110.625 18.664 111.001 18.9565 111.355C19.2373 111.713 19.5715 112.026 19.9473 112.282C20.2773 112.604 20.6563 112.872 21.0701 113.076C21.4687 113.313 21.8889 113.513 22.3251 113.671L23.6461 114.002L25.0331 114.134L26.5523 114.002H27.0146L27.9393 113.803V114.73C27.9476 115.239 27.9918 115.748 28.0714 116.251C28.1955 116.746 28.3499 117.232 28.5338 117.707C28.7504 118.162 28.993 118.604 29.2604 119.03C29.532 119.434 29.8416 119.811 30.1851 120.155L31.374 121.148L32.695 121.875C33.1606 122.069 33.6489 122.202 34.1481 122.272C34.643 122.408 35.1542 122.475 35.6672 122.471H91.8099C92.323 122.475 92.8341 122.408 93.329 122.272C93.83 122.211 94.3195 122.077 94.7822 121.875L96.1032 121.148C96.527 120.876 96.925 120.566 97.2921 120.221L98.2168 119.03C98.5091 118.619 98.7529 118.175 98.9433 117.707C99.1272 117.232 99.2816 116.746 99.4057 116.251C99.4823 115.748 99.5265 115.239 99.5378 114.73V25.1428C99.5238 24.6334 99.4797 24.1252 99.4057 23.621C99.2815 23.1484 99.1271 22.6843 98.9433 22.2315ZM29.2604 20.8421C28.9925 21.2913 28.7499 21.7552 28.5338 22.2315C28.3501 22.6843 28.1956 23.1484 28.0714 23.621C27.9975 24.1252 27.9533 24.6334 27.9393 25.1428V111.488L27.2788 111.62L26.0899 111.885H24.9671C24.5879 111.91 24.2073 111.865 23.8442 111.752L22.7214 111.421L21.7306 110.892C21.4155 110.686 21.1271 110.441 20.872 110.164C20.5944 109.885 20.3505 109.574 20.1454 109.238C19.9171 108.938 19.7387 108.603 19.617 108.246C19.4677 107.883 19.357 107.506 19.2868 107.121L2.57607 19.9158C2.49943 19.5231 2.45525 19.1248 2.44397 18.7248C2.45904 18.347 2.5032 17.971 2.57607 17.6C2.64632 17.2359 2.75709 16.8808 2.90632 16.5414C3.10447 16.1444 3.23657 15.8136 3.43472 15.4827C3.68082 15.1798 3.94553 14.8925 4.22733 14.6226C4.48244 14.3454 4.77086 14.101 5.08598 13.8948L6.07673 13.3655L7.19958 13.0347L61.7571 2.58065C62.1215 2.47471 62.5009 2.43 62.8799 2.44832H63.8707L64.8614 2.71298C65.1882 2.82694 65.499 2.98261 65.7861 3.17613L66.5787 3.70545C66.853 3.91365 67.0974 4.15854 67.3053 4.43326C67.5446 4.66433 67.7453 4.93241 67.8997 5.22724L68.3621 6.15354C68.4809 6.47537 68.5694 6.80764 68.6263 7.14601L70.4096 16.4091L70.6078 17.3354H35.6672C35.1542 17.3317 34.643 17.3985 34.1481 17.5339C33.6489 17.6039 33.1606 17.7373 32.695 17.9308L31.374 18.6587C30.946 18.9495 30.5478 19.2819 30.1851 19.6511C29.8382 20.0164 29.5284 20.4154 29.2604 20.8421ZM97.3581 114.663C97.369 115.018 97.3469 115.372 97.2921 115.722C97.2218 116.086 97.111 116.441 96.9618 116.781C96.8117 117.125 96.6351 117.457 96.4334 117.773L95.7729 118.567L94.9142 119.295L93.9235 119.824L92.9327 120.089L91.8099 120.221H35.6672L34.5444 120.089C34.1969 120.04 33.8612 119.927 33.5536 119.758L32.5629 119.295L31.7042 118.567L31.0437 117.773C30.842 117.457 30.6654 117.125 30.5153 116.781C30.3887 116.439 30.3001 116.084 30.2511 115.722C30.1376 115.381 30.0926 115.022 30.119 114.663V25.4736C30.097 25.072 30.1417 24.6696 30.2511 24.2826C30.2997 23.9134 30.4114 23.5553 30.5814 23.224C30.7172 22.8732 30.8946 22.54 31.1098 22.2315C31.3149 21.8953 31.5587 21.5844 31.8363 21.3052C32.0914 21.028 32.3798 20.7836 32.695 20.5774L33.6857 20.0481L34.8086 19.7173L35.9314 19.585H91.8099L92.9327 19.7173L93.9235 20.0481C94.2763 20.1485 94.6108 20.3049 94.9142 20.5113C95.2294 20.7174 95.5178 20.9619 95.7729 21.2391C96.029 21.4962 96.251 21.7853 96.4334 22.0992C96.6478 22.3844 96.8254 22.6957 96.9618 23.0255C97.111 23.3649 97.2218 23.72 97.2921 24.0841C97.3469 24.4342 97.369 24.7886 97.3581 25.1428V114.663Z" fill="url(#paint0_linear_549_67886)" />
		<path fill-rule="evenodd" clip-rule="evenodd" d="M75.1655 72.2519L72.1272 66.8926L66.7771 70.0023L50.7269 79.2654C50.0201 79.6696 49.4005 80.2105 48.9042 80.8567C48.4079 81.5029 48.0447 82.2414 47.8358 83.0294C47.6268 83.8174 47.5763 84.6391 47.6871 85.4468C47.7979 86.2545 48.0678 87.0321 48.4812 87.7344L51.5195 93.0938L56.8696 89.984L72.9198 80.721C73.6266 80.3167 74.2462 79.7758 74.7425 79.1297C75.2388 78.4835 75.602 77.745 75.811 76.957C76.0199 76.169 76.0704 75.3473 75.9596 74.5395C75.8488 73.7318 75.5789 72.9542 75.1655 72.2519Z" fill="url(#paint1_linear_549_67886)" />
		<path fill-rule="evenodd" clip-rule="evenodd" d="M79.7888 48.2344L76.09 41.8164L69.6831 45.5216L50.3965 56.6373C49.5551 57.1238 48.8176 57.7716 48.2262 58.5437C47.6347 59.3158 47.2008 60.197 46.9494 61.137C46.6979 62.077 46.6337 63.0575 46.7606 64.0224C46.8874 64.9872 47.2026 65.9177 47.6884 66.7605L51.3872 73.1784L57.7941 69.4732L77.0808 58.3576C78.7668 57.3626 79.9953 55.7442 80.5018 53.8508C81.0083 51.9574 80.7523 49.9405 79.7888 48.2344Z" fill="url(#paint2_linear_549_67886)" />
		<path fill-rule="evenodd" clip-rule="evenodd" d="M66.5783 64.4443L51.3867 73.1781L56.9349 75.6923L72.1265 66.8924L66.5783 64.4443Z" fill="url(#paint3_linear_549_67886)" />
	</g>
	<defs>
		<linearGradient id="paint0_linear_549_67886" x1="10.2379" y1="6.35177" x2="99.9361" y2="127.285" gradientUnits="userSpaceOnUse">
			<stop stop-color="#24C2EE" />
			<stop offset="1" stop-color="#682CA4" />
		</linearGradient>
		<linearGradient id="paint1_linear_549_67886" x1="79.9211" y1="83.1029" x2="43.4748" y2="99.0285" gradientUnits="userSpaceOnUse">
			<stop stop-color="#6A65D4" />
			<stop offset="1" stop-color="#58B0EF" />
		</linearGradient>
		<linearGradient id="paint2_linear_549_67886" x1="76.2883" y1="76.4869" x2="33.0974" y2="66.501" gradientUnits="userSpaceOnUse">
			<stop stop-color="#6769D5" />
			<stop offset="1" stop-color="#57B3F0" />
		</linearGradient>
		<linearGradient id="paint3_linear_549_67886" x1="58.4542" y1="60.2754" x2="69.0434" y2="72.1658" gradientUnits="userSpaceOnUse">
			<stop stop-color="#5FA1D7" />
			<stop offset="1" stop-color="#4148CC" />
		</linearGradient>
		<clipPath id="clip0_549_67886">
			<rect width="100" height="123" fill="white" />
		</clipPath>
	</defs>
</svg>
