<svg width="100" height="82" viewBox="0 0 100 82" fill="none" xmlns="http://www.w3.org/2000/svg">
<g clip-path="url(#clip0_549_67885)">
<mask id="mask0_549_67885" style="mask-type:luminance" maskUnits="userSpaceOnUse" x="0" y="0" width="100" height="82">
<path d="M88.1789 82.0002H11.7678C8.64193 81.986 5.64885 80.7229 3.44347 78.4872C1.23809 76.2516 -3.17118e-05 73.2255 1.93345e-09 70.0709L1.93345e-09 8.1142C-2.32514e-05 7.04412 0.209701 5.98459 0.617098 4.99664C1.02449 4.00868 1.62152 3.1118 2.37379 2.35764C3.12607 1.60347 4.01874 1.00692 5.00041 0.60233C5.98208 0.197736 7.03335 -0.00690871 8.09372 0.000177948H83.0138C85.1604 0.000177948 87.2191 0.860707 88.737 2.39246C90.2548 3.92421 91.1076 6.00171 91.1076 8.16794V14.7774C92.2798 14.7774 93.4405 15.0112 94.5229 15.4656C95.6052 15.9199 96.5879 16.5857 97.4144 17.4247C98.2408 18.2637 98.8947 19.2593 99.3384 20.3543C99.7822 21.4492 100.007 22.6219 100 23.8049V33.8534V70.0709C99.986 73.2304 98.7361 76.2565 96.5222 78.4906C94.3083 80.7247 91.3097 81.986 88.1789 82.0002ZM1.5442 12.9504V70.0709C1.54416 72.8122 2.61959 75.442 4.53538 77.3854C6.45117 79.3287 9.05147 80.4276 11.7678 80.4418H88.1789C90.9045 80.4418 93.5185 79.3492 95.4458 77.4043C97.3731 75.4594 98.4558 72.8215 98.4558 70.0709V56.6371H76.5176C73.5095 56.6371 70.6247 55.4313 68.4977 53.2848C66.3707 51.1383 65.1757 48.2271 65.1757 45.1915V44.5467C65.1757 41.5111 66.3707 38.5999 68.4977 36.4534C70.6247 34.307 73.5095 33.1011 76.5176 33.1011H98.4558V23.8049C98.4737 22.8272 98.2941 21.856 97.9279 20.9506C97.5617 20.0453 97.0166 19.2247 96.3259 18.5388C94.9441 17.1362 93.0674 16.3439 91.1076 16.3357H8.09372C6.8146 16.3338 5.55414 16.0261 4.41567 15.4376C3.2772 14.8492 2.29315 13.9968 1.5442 12.9504ZM8.09372 1.5585C6.35668 1.5585 4.69078 2.25485 3.46251 3.49436C2.23423 4.73387 1.5442 6.415 1.5442 8.16794C1.5442 9.92087 2.23423 11.602 3.46251 12.8415C4.69078 14.081 6.35668 14.7774 8.09372 14.7774H89.5634V8.16794C89.5634 6.415 88.8733 4.73387 87.645 3.49436C86.4168 2.25485 84.7509 1.5585 83.0138 1.5585H8.09372ZM98.4558 55.0788V34.6594H76.5176C75.2264 34.6523 73.9467 34.9028 72.7518 35.3966C71.557 35.8903 70.4706 36.6174 69.5551 37.5363C68.6397 38.4551 67.9132 39.5474 67.4175 40.7505C66.9218 41.9536 66.6666 43.2437 66.6667 44.5467V45.1915C66.6807 47.8187 67.7248 50.3335 69.5707 52.1862C71.4166 54.0389 73.9141 55.0788 76.5176 55.0788H98.4558ZM82.5879 40.9464C82.0428 40.8817 81.4904 40.9342 80.9669 41.1005C80.4434 41.2667 79.9607 41.5429 79.5506 41.9109C79.1405 42.2789 78.8123 42.7304 78.5875 43.2357C78.3628 43.7409 78.2466 44.2884 78.2466 44.8422C78.2466 45.3961 78.3628 45.9436 78.5875 46.4488C78.8123 46.9541 79.1405 47.4055 79.5506 47.7736C79.9607 48.1416 80.4434 48.4178 80.9669 48.584C81.4904 48.7503 82.0428 48.8028 82.5879 48.738C83.6047 48.738 84.5798 48.3304 85.2988 47.6049C86.0178 46.8793 86.4217 45.8952 86.4217 44.8691C86.4218 43.838 86.0196 42.8483 85.3021 42.1142C84.5846 41.3801 83.6095 40.9606 82.5879 40.9464ZM82.5879 50.2964C81.5092 50.307 80.4518 49.9932 79.5505 49.3951C78.6492 48.7969 77.9449 47.9415 77.5272 46.9378C77.1095 45.9341 76.9975 44.8277 77.2053 43.7595C77.4132 42.6913 77.9316 41.7097 78.6943 40.94C79.4571 40.1702 80.4298 39.6471 81.4883 39.4374C82.5468 39.2276 83.6432 39.3407 84.6378 39.7621C85.6324 40.1836 86.4801 40.8945 87.0728 41.804C87.6655 42.7135 87.9764 43.7806 87.9659 44.8691C87.9659 46.3085 87.3993 47.689 86.3907 48.7068C85.3821 49.7246 84.0142 50.2964 82.5879 50.2964Z" fill="white"/>
</mask>
<g mask="url(#mask0_549_67885)">
<path d="M0 0V82H100V0H0Z" fill="url(#paint0_linear_549_67885)"/>
</g>
<path fill-rule="evenodd" clip-rule="evenodd" d="M45.847 51.8018L43.3976 47.4492L39.0845 49.9748L26.1452 57.4977C25.5754 57.826 25.0759 58.2653 24.6758 58.7901C24.2756 59.3149 23.9829 59.9147 23.8144 60.5546C23.646 61.1946 23.6052 61.862 23.6945 62.5179C23.7839 63.1739 24.0015 63.8054 24.3348 64.3758L26.7842 68.7284L31.0973 66.2028L44.0366 58.6799C44.6064 58.3516 45.1059 57.9123 45.506 57.3875C45.9061 56.8627 46.1989 56.2629 46.3674 55.623C46.5358 54.983 46.5766 54.3156 46.4872 53.6597C46.3979 53.0037 46.1803 52.3722 45.847 51.8018Z" fill="url(#paint1_linear_549_67885)"/>
<path fill-rule="evenodd" clip-rule="evenodd" d="M49.5741 32.2953L46.5922 27.083L41.4272 30.0922L25.8787 39.1197C25.2004 39.5149 24.6059 40.041 24.129 40.668C23.6522 41.295 23.3025 42.0107 23.0997 42.7741C22.897 43.5376 22.8453 44.3338 22.9475 45.1175C23.0497 45.9011 23.3039 46.6567 23.6955 47.3412L26.6774 52.5535L31.8425 49.5443L47.391 40.5168C48.7502 39.7088 49.7406 38.3944 50.1489 36.8567C50.5573 35.319 50.3509 33.681 49.5741 32.2953Z" fill="url(#paint2_linear_549_67885)"/>
<path fill-rule="evenodd" clip-rule="evenodd" d="M38.9248 45.4609L26.6777 52.554L31.1506 54.5959L43.3976 47.4491L38.9248 45.4609Z" fill="url(#paint3_linear_549_67885)"/>
</g>
<defs>
<linearGradient id="paint0_linear_549_67885" x1="-1.43991e-06" y1="0.215152" x2="98.4697" y2="84.4983" gradientUnits="userSpaceOnUse">
<stop stop-color="#24C2EE"/>
<stop offset="1" stop-color="#682CA4"/>
</linearGradient>
<linearGradient id="paint1_linear_549_67885" x1="49.6809" y1="60.6143" x2="20.2296" y2="73.3888" gradientUnits="userSpaceOnUse">
<stop stop-color="#6A65D4"/>
<stop offset="1" stop-color="#58B0EF"/>
</linearGradient>
<linearGradient id="paint2_linear_549_67885" x1="46.7521" y1="55.2405" x2="11.9067" y2="47.2433" gradientUnits="userSpaceOnUse">
<stop stop-color="#6769D5"/>
<stop offset="1" stop-color="#57B3F0"/>
</linearGradient>
<linearGradient id="paint3_linear_549_67885" x1="32.3754" y1="42.0752" x2="40.9825" y2="51.6688" gradientUnits="userSpaceOnUse">
<stop stop-color="#5FA1D7"/>
<stop offset="1" stop-color="#4148CC"/>
</linearGradient>
<clipPath id="clip0_549_67885">
<rect width="100" height="82" fill="white"/>
</clipPath>
</defs>
</svg>
