<svg width="24" height="20" viewBox="0 0 24 20" fill="none" xmlns="http://www.w3.org/2000/svg">
<g clip-path="url(#clip0_414_75728)">
<mask id="mask0_414_75728" style="mask-type:luminance" maskUnits="userSpaceOnUse" x="0" y="0" width="24" height="20">
<path d="M21.1629 20H2.82428C2.07406 19.9966 1.35572 19.6885 0.826432 19.1432C0.297141 18.598 -7.61083e-06 17.8599 4.64029e-10 17.0905L4.64029e-10 1.97907C-5.58033e-06 1.71808 0.0503282 1.45966 0.148103 1.21869C0.245879 0.977727 0.389164 0.758976 0.56971 0.575034C0.750257 0.391091 0.964497 0.245591 1.2001 0.14691C1.4357 0.0482283 1.68801 -0.00168505 1.94249 4.3402e-05H19.9233C20.4385 4.3402e-05 20.9326 0.209928 21.2969 0.583526C21.6612 0.957124 21.8658 1.46383 21.8658 1.99218V3.60424C22.1472 3.60423 22.4257 3.66128 22.6855 3.77209C22.9453 3.8829 23.1811 4.0453 23.3794 4.24993C23.5778 4.45456 23.7347 4.69739 23.8412 4.96446C23.9477 5.23152 24.0017 5.51754 24 5.80607V8.25692V17.0905C23.9966 17.8611 23.6967 18.5991 23.1653 19.144C22.634 19.6889 21.9143 19.9966 21.1629 20ZM0.370607 3.15863V17.0905C0.370598 17.7591 0.628701 18.4005 1.08849 18.8745C1.54828 19.3485 2.17235 19.6165 2.82428 19.62H21.1629C21.8171 19.62 22.4444 19.3535 22.907 18.8791C23.3695 18.4047 23.6294 17.7613 23.6294 17.0905V13.8139H18.3642C17.6423 13.8139 16.9499 13.5198 16.4394 12.9963C15.929 12.4728 15.6422 11.7627 15.6422 11.0223V10.865C15.6422 10.1247 15.929 9.41461 16.4394 8.89108C16.9499 8.36755 17.6423 8.07344 18.3642 8.07344H23.6294V5.80607C23.6337 5.5676 23.5906 5.33074 23.5027 5.10991C23.4148 4.88909 23.284 4.68894 23.1182 4.52167C22.7866 4.17956 22.3362 3.98631 21.8658 3.98432H1.94249C1.6355 3.98386 1.33299 3.90879 1.05976 3.76527C0.786529 3.62174 0.550356 3.41385 0.370607 3.15863ZM1.94249 0.380122C1.5256 0.380122 1.12579 0.549963 0.831001 0.852283C0.536216 1.1546 0.370607 1.56464 0.370607 1.99218C0.370607 2.41972 0.536216 2.82976 0.831001 3.13208C1.12579 3.4344 1.5256 3.60424 1.94249 3.60424H21.4952V1.99218C21.4952 1.56464 21.3296 1.1546 21.0348 0.852283C20.74 0.549963 20.3402 0.380122 19.9233 0.380122H1.94249ZM23.6294 13.4339V8.45352H18.3642C18.0543 8.45179 17.7472 8.51289 17.4604 8.63331C17.1737 8.75372 16.9129 8.93108 16.6932 9.15519C16.4735 9.37929 16.2992 9.64572 16.1802 9.93916C16.0612 10.2326 16 10.5473 16 10.865V11.0223C16.0034 11.6631 16.254 12.2765 16.697 12.7283C17.14 13.1802 17.7394 13.4339 18.3642 13.4339H23.6294ZM19.8211 9.98694C19.6903 9.97115 19.5577 9.98396 19.4321 10.0245C19.3064 10.065 19.1906 10.1324 19.0922 10.2222C18.9937 10.3119 18.915 10.4221 18.861 10.5453C18.8071 10.6685 18.7792 10.8021 18.7792 10.9371C18.7792 11.0722 18.8071 11.2058 18.861 11.329C18.915 11.4522 18.9937 11.5623 19.0922 11.6521C19.1906 11.7418 19.3064 11.8092 19.4321 11.8498C19.5577 11.8903 19.6903 11.9031 19.8211 11.8873C20.0651 11.8873 20.2992 11.7879 20.4717 11.6109C20.6443 11.434 20.7412 11.194 20.7412 10.9437C20.7412 10.6922 20.6447 10.4508 20.4725 10.2718C20.3003 10.0927 20.0663 9.99038 19.8211 9.98694ZM19.8211 12.2674C19.5622 12.27 19.3084 12.1935 19.0921 12.0476C18.8758 11.9017 18.7068 11.693 18.6065 11.4482C18.5063 11.2034 18.4794 10.9336 18.5293 10.673C18.5792 10.4125 18.7036 10.1731 18.8866 9.98536C19.0697 9.79762 19.3031 9.67003 19.5572 9.61887C19.8112 9.56771 20.0744 9.59528 20.3131 9.69808C20.5518 9.80089 20.7552 9.97426 20.8975 10.1961C21.0397 10.4179 21.1143 10.6782 21.1118 10.9437C21.1118 11.2948 20.9758 11.6315 20.7338 11.8797C20.4917 12.1279 20.1634 12.2674 19.8211 12.2674Z" fill="white"/>
</mask>
<g mask="url(#mask0_414_75728)">
<path d="M0 0V20H24V0H0Z" fill="url(#paint0_linear_414_75728)"/>
</g>
<path fill-rule="evenodd" clip-rule="evenodd" d="M11.0042 12.6353L10.4163 11.5737L9.38118 12.1897L6.27575 14.0246C6.13899 14.1047 6.01912 14.2118 5.92308 14.3398C5.82705 14.4678 5.75678 14.6141 5.71636 14.7702C5.67593 14.9263 5.66615 15.089 5.68759 15.249C5.70903 15.409 5.76126 15.5631 5.84124 15.7022L6.4291 16.7638L7.46424 16.1478L10.5697 14.3129C10.7064 14.2328 10.8263 14.1257 10.9223 13.9977C11.0184 13.8697 11.0886 13.7234 11.1291 13.5673C11.1695 13.4112 11.1793 13.2485 11.1578 13.0885C11.1364 12.9285 11.0842 12.7744 11.0042 12.6353Z" fill="url(#paint1_linear_414_75728)"/>
<path fill-rule="evenodd" clip-rule="evenodd" d="M11.8987 7.87774L11.1831 6.60645L9.94346 7.34039L6.21183 9.54222C6.04903 9.6386 5.90634 9.76692 5.79191 9.91986C5.67747 10.0728 5.59353 10.2473 5.54487 10.4336C5.49622 10.6198 5.4838 10.814 5.50834 11.0051C5.53287 11.1962 5.59388 11.3805 5.68786 11.5475L6.40352 12.8188L7.64314 12.0848L11.3748 9.88298C11.701 9.68591 11.9387 9.36533 12.0367 8.99028C12.1347 8.61522 12.0851 8.2157 11.8987 7.87774Z" fill="url(#paint2_linear_414_75728)"/>
<path fill-rule="evenodd" clip-rule="evenodd" d="M9.34281 11.0889L6.40352 12.8188L7.477 13.317L10.4163 11.5737L9.34281 11.0889Z" fill="url(#paint3_linear_414_75728)"/>
</g>
<defs>
<linearGradient id="paint0_linear_414_75728" x1="-3.45578e-07" y1="0.0524762" x2="23.9543" y2="20.2276" gradientUnits="userSpaceOnUse">
<stop stop-color="#24C2EE"/>
<stop offset="1" stop-color="#682CA4"/>
</linearGradient>
<linearGradient id="paint1_linear_414_75728" x1="12.9922" y1="12.8906" x2="3.56175" y2="15.3582" gradientUnits="userSpaceOnUse">
<stop stop-color="#6A65D4"/>
<stop offset="1" stop-color="#58B0EF"/>
</linearGradient>
<linearGradient id="paint2_linear_414_75728" x1="11.2214" y1="17.8353" x2="2.58285" y2="16.6421" gradientUnits="userSpaceOnUse">
<stop stop-color="#6769D5"/>
<stop offset="1" stop-color="#57B3F0"/>
</linearGradient>
<linearGradient id="paint3_linear_414_75728" x1="7.77019" y1="10.2631" x2="9.87287" y2="12.5693" gradientUnits="userSpaceOnUse">
<stop stop-color="#5FA1D7"/>
<stop offset="1" stop-color="#4148CC"/>
</linearGradient>
<clipPath id="clip0_414_75728">
<rect width="24" height="20" fill="white"/>
</clipPath>
</defs>
</svg>
