<svg width="24" height="24" viewBox="0 0 24 24" fill="none" xmlns="http://www.w3.org/2000/svg">
<path d="M16.9231 22C16.8547 21.9997 16.7871 21.9854 16.7245 21.958C16.6619 21.9306 16.6055 21.8906 16.559 21.8406L14.1352 19.265C14.0446 19.1685 13.996 19.0401 14.0003 18.9079C14.0045 18.7757 14.0611 18.6506 14.1576 18.5601C14.2542 18.4696 14.3828 18.4211 14.5151 18.4253C14.6475 18.4295 14.7727 18.486 14.8633 18.5825L16.9181 20.7695L21.1124 16.1862C21.155 16.1333 21.2079 16.0896 21.268 16.0578C21.3281 16.0261 21.394 16.0069 21.4618 16.0016C21.5296 15.9962 21.5977 16.0047 21.6621 16.0266C21.7264 16.0485 21.7856 16.0833 21.836 16.1289C21.8864 16.1745 21.9269 16.2298 21.9551 16.2916C21.9833 16.3534 21.9985 16.4203 21.9999 16.4882C22.0013 16.5561 21.9887 16.6236 21.963 16.6864C21.9373 16.7493 21.8991 16.8063 21.8505 16.8538L17.2921 21.8356C17.246 21.8865 17.1899 21.9274 17.1273 21.9557C17.0646 21.984 16.9968 21.9991 16.9281 22H16.9231Z" fill="url(#paint0_linear_414_75731)"/>
<path fill-rule="evenodd" clip-rule="evenodd" d="M9.16927 12.834C9.14144 12.834 9.11367 12.8338 9.08594 12.8334C8.8539 12.8299 8.62536 12.8121 8.40115 12.7808C5.72635 12.4074 3.66927 10.112 3.66927 7.33398C3.66927 4.29523 6.13052 1.83398 9.16927 1.83398C12.208 1.83398 14.6693 4.29523 14.6693 7.33398C14.6693 10.1126 12.6114 12.4083 9.93592 12.781C9.71219 12.8122 9.48414 12.8299 9.2526 12.8334C9.22488 12.8338 9.1971 12.834 9.16927 12.834ZM9.16927 11.834C6.68281 11.834 4.66927 9.82045 4.66927 7.33398C4.66927 4.84752 6.68281 2.83398 9.16927 2.83398C11.6557 2.83398 13.6693 4.84752 13.6693 7.33398C13.6693 9.82045 11.6557 11.834 9.16927 11.834Z" fill="url(#paint1_linear_414_75731)"/>
<path fill-rule="evenodd" clip-rule="evenodd" d="M10.0859 19.2507V13.8075C10.4271 13.85 10.761 13.916 11.0859 14.0037C12.1067 14.2794 13.0393 14.7699 13.8321 15.4237C13.5269 15.5898 13.2491 15.7999 13.0073 16.0455C12.4354 15.6092 11.7871 15.268 11.0859 15.0457V20.084H12.3798C12.5719 20.462 12.8307 20.8005 13.1407 21.084H1.83594C1.83594 20.7478 1.85905 20.4137 1.90443 20.084C2.10015 18.6621 2.71024 17.3208 3.66927 16.2332C4.62452 15.15 5.87285 14.3787 7.2526 14.005C7.57929 13.9165 7.91333 13.8503 8.2526 13.8075V19.2507H10.0859ZM7.2526 20.084H2.91537C3.10363 18.9067 3.62176 17.799 4.4193 16.8946C5.18353 16.028 6.16496 15.3926 7.2526 15.0471V20.084Z" fill="url(#paint2_linear_414_75731)"/>
<defs>
<linearGradient id="paint0_linear_414_75731" x1="14" y1="16.0157" x2="21.2764" y2="22.8252" gradientUnits="userSpaceOnUse">
<stop stop-color="#24C2EE"/>
<stop offset="1" stop-color="#682CA4"/>
</linearGradient>
<linearGradient id="paint1_linear_414_75731" x1="1.83594" y1="1.88449" x2="19.7983" y2="10.2892" gradientUnits="userSpaceOnUse">
<stop stop-color="#24C2EE"/>
<stop offset="1" stop-color="#682CA4"/>
</linearGradient>
<linearGradient id="paint2_linear_414_75731" x1="1.83594" y1="1.88449" x2="19.7983" y2="10.2892" gradientUnits="userSpaceOnUse">
<stop stop-color="#24C2EE"/>
<stop offset="1" stop-color="#682CA4"/>
</linearGradient>
</defs>
</svg>
