<svg width="150" height="150" viewBox="0 0 150 150" fill="none" xmlns="http://www.w3.org/2000/svg">
<path d="M68.7118 103.901V91.4014C68.7118 88.2985 71.3969 86.1395 74.0376 87.0554C84.2378 90.5933 91.9723 99.2745 94.0479 109.928C94.5421 112.465 92.4073 114.752 89.5631 114.752H38.0647C35.2204 114.752 33.0885 112.466 33.5854 109.931C34.6196 104.654 37.0655 99.7043 40.7192 95.619C44.2191 91.7057 48.6576 88.775 53.584 87.0639C56.2277 86.1456 58.9159 88.3053 58.9159 91.4108V96.2589V103.901C58.9159 106.606 61.1088 108.799 63.8139 108.799C66.5189 108.799 68.7118 106.606 68.7118 103.901ZM63.8139 79.5668C51.1726 79.5668 40.9567 69.4752 40.9567 57.0428C40.9567 44.6105 51.1726 34.5189 63.8139 34.5189C76.4551 34.5189 86.671 44.6105 86.671 57.0428C86.671 69.4752 76.4551 79.5668 63.8139 79.5668Z" stroke="white" stroke-width="1.86589"/>
<path d="M117.511 59.1805C117.511 49.2604 104.931 50.9398 104.931 47.1514C104.931 46.0968 105.953 45.5891 107.526 45.5891C109.491 45.5891 111.103 46.3702 112.754 48.0496L117.551 43.1677C115.703 41.2149 112.912 39.887 109.806 39.4964V35.8252H104.302V39.6917C100.056 40.6681 97.4615 43.6754 97.4615 48.0106C97.4615 57.6183 110.042 56.017 110.042 60.0007C110.042 61.1333 108.98 61.8363 106.897 61.8363C104.381 61.8363 102.258 60.8209 100.292 58.8681L95.5352 63.75C97.9726 66.3277 100.685 67.6556 104.302 68.0071V71.6002H109.806V67.7728C114.759 66.8354 117.511 63.8281 117.511 59.1805Z" fill="#4C58DA"/>
<rect x="0.5" y="0.5" width="148.271" height="148.271" rx="11.4417" stroke="#164092"/>
</svg>
