<svg width="150" height="150" viewBox="0 0 150 150" fill="none" xmlns="http://www.w3.org/2000/svg">
<rect y="0.212891" width="149.271" height="149.271" rx="11.9417" fill="#2D6DE9"/>
<path d="M53.2774 86.3955C56.6686 85.2176 59.8484 88.0338 59.8484 91.6237V96.4717V104.114C59.8484 106.304 61.6236 108.079 63.8134 108.079V108.079C66.0032 108.079 67.7784 106.304 67.7784 104.114V91.6143C67.7784 88.0277 70.9543 85.2115 74.3429 86.3868C84.8481 90.0305 92.8222 98.9734 94.9631 109.963C95.5937 113.2 92.8603 115.898 89.5627 115.898H38.0642C34.7666 115.898 32.0351 113.2 32.6694 109.964C33.7358 104.522 36.2577 99.4203 40.0233 95.21C43.6303 91.1769 48.2034 88.1578 53.2774 86.3955ZM63.8134 80.7126C50.6694 80.7126 40.0233 70.2157 40.0233 57.2557C40.0233 44.2958 50.6694 33.7988 63.8134 33.7988C76.9574 33.7988 87.6035 44.2958 87.6035 57.2557C87.6035 70.2157 76.9574 80.7126 63.8134 80.7126Z" fill="#EEEEEE"/>
<path d="M117.51 59.3934C117.51 49.4733 104.93 51.1526 104.93 47.3642C104.93 46.3097 105.952 45.802 107.524 45.802C109.49 45.802 111.102 46.5831 112.753 48.2625L117.549 43.3806C115.701 41.4278 112.91 40.0999 109.804 39.7093V36.0381H104.301V39.9046C100.055 40.881 97.46 43.8883 97.46 48.2235C97.46 57.8312 110.04 56.2299 110.04 60.2136C110.04 61.3462 108.979 62.0492 106.895 62.0492C104.379 62.0492 102.256 61.0337 100.291 59.081L95.5337 63.9629C97.9711 66.5406 100.684 67.8685 104.301 68.22V71.8131H109.804V67.9857C114.758 67.0483 117.51 64.041 117.51 59.3934Z" fill="#EEEEEE"/>
</svg>
