<svg width="151" height="150" viewBox="0 0 151 150" fill="none" xmlns="http://www.w3.org/2000/svg">
<path d="M65.0528 87.0639C67.6965 86.1456 70.3846 88.3053 70.3846 91.4108V96.2588V103.901C70.3846 106.606 72.5775 108.799 75.2826 108.799C77.9877 108.799 80.1806 106.606 80.1806 103.901V91.4014C80.1806 88.2985 82.8657 86.1394 85.5064 87.0553C95.7066 90.5932 103.441 99.2744 105.517 109.928C106.011 112.465 103.876 114.752 101.032 114.752H49.5334C46.6892 114.752 44.5572 112.466 45.0541 109.931C46.0884 104.653 48.5343 99.7042 52.1879 95.619C55.6879 91.7057 60.1264 88.7749 65.0528 87.0639ZM75.2826 79.5668C62.6414 79.5668 52.4255 69.4751 52.4255 57.0428C52.4255 44.6105 62.6414 34.5189 75.2826 34.5189C87.9238 34.5189 98.1397 44.6105 98.1397 57.0428C98.1397 69.4751 87.9238 79.5668 75.2826 79.5668Z" stroke="white" stroke-width="1.86589"/>
<rect x="0.773438" y="0.5" width="149" height="149" rx="11.5" stroke="#164092"/>
</svg>
