<svg width="150" height="150" viewBox="0 0 150 150" fill="none" xmlns="http://www.w3.org/2000/svg">
<rect x="0.5" y="0.5" width="149" height="149" rx="11.5" fill="#2D6DE9"/>
<path d="M60.9375 103.125V114.375" stroke="white" stroke-width="0.833333" stroke-linecap="round" stroke-linejoin="round"/>
<path d="M44.0625 35.625H77.8125C79.3043 35.625 80.7351 36.2176 81.79 37.2725C82.8449 38.3274 83.4375 39.7582 83.4375 41.25V113.674C83.4365 113.86 83.3618 114.038 83.2297 114.17C83.0976 114.301 82.9188 114.375 82.7325 114.375H38.4375V41.25C38.4375 39.7582 39.0301 38.3274 40.085 37.2725C41.1399 36.2176 42.5707 35.625 44.0625 35.625Z" stroke="white" stroke-width="0.833333" stroke-linecap="round" stroke-linejoin="round"/>
<path d="M86.25 63.75H105.938C107.429 63.75 108.86 64.3426 109.915 65.3975C110.97 66.4524 111.562 67.8832 111.562 69.375V114.375H83.4375V66.5625C83.4375 65.8166 83.7338 65.1012 84.2613 64.5738C84.7887 64.0463 85.5041 63.75 86.25 63.75Z" stroke="white" stroke-width="0.833333" stroke-linecap="round" stroke-linejoin="round"/>
<path d="M47.2386 105.915C46.8681 105.972 46.49 105.954 46.1265 105.863C45.763 105.772 45.4213 105.609 45.1216 105.384C44.8219 105.159 44.5702 104.876 44.3813 104.553C44.1924 104.229 44.0702 103.871 44.0217 103.499C43.9732 103.127 43.9995 102.75 44.099 102.389C44.1985 102.027 44.3692 101.689 44.6012 101.395C44.8331 101.101 45.1215 100.855 45.4495 100.674C45.7775 100.493 46.1384 100.379 46.5111 100.339C47.2416 100.261 47.9737 100.471 48.5509 100.926C49.128 101.38 49.5044 102.043 49.5994 102.771C49.6945 103.5 49.5007 104.237 49.0595 104.824C48.6183 105.412 47.9647 105.803 47.2386 105.915Z" fill="white"/>
<path d="M47.2386 91.8525C46.8681 91.9095 46.49 91.892 46.1265 91.8008C45.763 91.7097 45.4213 91.5468 45.1216 91.3217C44.8219 91.0966 44.5702 90.8139 44.3813 90.4902C44.1924 90.1665 44.0702 89.8083 44.0217 89.4366C43.9732 89.065 43.9995 88.6874 44.099 88.326C44.1985 87.9647 44.3692 87.6269 44.6012 87.3324C44.8331 87.038 45.1215 86.7929 45.4495 86.6115C45.7775 86.4302 46.1384 86.3162 46.5111 86.2763C47.2416 86.198 47.9737 86.4087 48.5509 86.8634C49.128 87.318 49.5044 87.9804 49.5994 88.7089C49.6945 89.4374 49.5007 90.1742 49.0595 90.7617C48.6183 91.3492 47.9647 91.7407 47.2386 91.8525Z" fill="white"/>
<path d="M47.2389 77.7901C46.8725 77.8379 46.5003 77.8131 46.1435 77.717C45.7867 77.6209 45.4524 77.4555 45.1595 77.2302C44.8667 77.0049 44.6211 76.7241 44.4367 76.4039C44.2524 76.0837 44.1329 75.7303 44.0851 75.3639C44.0374 74.9975 44.0622 74.6253 44.1583 74.2685C44.2544 73.9117 44.4198 73.5774 44.6451 73.2845C44.8704 72.9917 45.1512 72.7461 45.4714 72.5617C45.7916 72.3774 46.145 72.2579 46.5114 72.2101C47.2513 72.1137 47.9993 72.3151 48.5908 72.7701C49.1822 73.2251 49.5687 73.8964 49.6651 74.6364C49.7616 75.3764 49.5602 76.1243 49.1052 76.7158C48.6502 77.3072 47.9788 77.6937 47.2389 77.7901Z" fill="white"/>
<path d="M47.2389 63.7276C46.4989 63.8241 45.751 63.6227 45.1595 63.1677C44.5681 62.7127 44.1816 62.0413 44.0851 61.3014C43.9887 60.5614 44.1901 59.8135 44.6451 59.222C45.1001 58.6306 45.7714 58.2441 46.5114 58.1476C46.8778 58.0999 47.25 58.1247 47.6068 58.2208C47.9636 58.3169 48.2979 58.4823 48.5908 58.7076C48.8836 58.9329 49.1292 59.2137 49.3136 59.5339C49.4979 59.8541 49.6174 60.2075 49.6651 60.5739C49.7129 60.9403 49.6881 61.3125 49.592 61.6693C49.4959 62.026 49.3305 62.3604 49.1052 62.6533C48.8799 62.9461 48.5991 63.1917 48.2789 63.3761C47.9587 63.5604 47.6053 63.6799 47.2389 63.7276Z" fill="white"/>
<path d="M47.2389 49.6651C46.4989 49.7616 45.751 49.5602 45.1595 49.1052C44.5681 48.6502 44.1816 47.9788 44.0851 47.2389C43.9887 46.4989 44.1901 45.751 44.6451 45.1595C45.1001 44.5681 45.7714 44.1816 46.5114 44.0851C46.8778 44.0374 47.25 44.0622 47.6068 44.1583C47.9636 44.2544 48.2979 44.4198 48.5908 44.6451C48.8836 44.8704 49.1292 45.1512 49.3136 45.4714C49.4979 45.7916 49.6174 46.145 49.6651 46.5114C49.7129 46.8778 49.6881 47.25 49.592 47.6068C49.4959 47.9635 49.3305 48.2979 49.1052 48.5908C48.8799 48.8836 48.5991 49.1292 48.2789 49.3136C47.9587 49.4979 47.6053 49.6174 47.2389 49.6651Z" fill="white"/>
<path d="M61.3011 91.8525C60.9306 91.9095 60.5525 91.892 60.189 91.8008C59.8255 91.7097 59.4838 91.5468 59.1841 91.3217C58.8844 91.0966 58.6327 90.8139 58.4438 90.4902C58.2549 90.1665 58.1327 89.8083 58.0842 89.4366C58.0357 89.065 58.062 88.6874 58.1615 88.326C58.261 87.9647 58.4317 87.6269 58.6637 87.3324C58.8956 87.038 59.184 86.7929 59.512 86.6115C59.84 86.4302 60.2009 86.3162 60.5736 86.2763C61.3041 86.198 62.0362 86.4087 62.6134 86.8634C63.1905 87.318 63.5669 87.9804 63.6619 88.7089C63.757 89.4374 63.5632 90.1742 63.122 90.7617C62.6808 91.3492 62.0272 91.7407 61.3011 91.8525Z" fill="white"/>
<path d="M61.3014 77.7901C60.5614 77.8866 59.8135 77.6852 59.222 77.2302C58.6306 76.7752 58.2441 76.1038 58.1476 75.3639C58.0512 74.6239 58.2526 73.876 58.7076 73.2845C59.1626 72.6931 59.8339 72.3066 60.5739 72.2101C60.9403 72.1624 61.3125 72.1872 61.6693 72.2833C62.026 72.3794 62.3604 72.5448 62.6533 72.7701C62.9461 72.9954 63.1917 73.2762 63.3761 73.5964C63.5604 73.9166 63.6799 74.27 63.7276 74.6364C63.7754 75.0028 63.7505 75.375 63.6545 75.7318C63.5584 76.0885 63.393 76.4229 63.1677 76.7158C62.9424 77.0086 62.6616 77.2542 62.3414 77.4386C62.0212 77.6229 61.6678 77.7424 61.3014 77.7901Z" fill="white"/>
<path d="M61.3014 63.7276C60.5614 63.8241 59.8135 63.6227 59.222 63.1677C58.6306 62.7127 58.2441 62.0413 58.1476 61.3014C58.0512 60.5614 58.2526 59.8135 58.7076 59.222C59.1626 58.6306 59.8339 58.2441 60.5739 58.1476C60.9403 58.0999 61.3125 58.1247 61.6693 58.2208C62.026 58.3169 62.3604 58.4823 62.6533 58.7076C62.9461 58.9329 63.1917 59.2137 63.3761 59.5339C63.5604 59.8541 63.6799 60.2075 63.7276 60.5739C63.7754 60.9403 63.7505 61.3125 63.6545 61.6693C63.5584 62.026 63.393 62.3604 63.1677 62.6533C62.9424 62.9461 62.6616 63.1917 62.3414 63.3761C62.0212 63.5604 61.6678 63.6799 61.3014 63.7276Z" fill="white"/>
<path d="M61.3014 49.6651C60.5614 49.7616 59.8135 49.5602 59.222 49.1052C58.6306 48.6502 58.2441 47.9788 58.1476 47.2389C58.0512 46.4989 58.2526 45.751 58.7076 45.1595C59.1626 44.5681 59.8339 44.1816 60.5739 44.0851C60.9403 44.0374 61.3125 44.0622 61.6693 44.1583C62.026 44.2544 62.3604 44.4198 62.6533 44.6451C62.9461 44.8704 63.1917 45.1512 63.3761 45.4714C63.5604 45.7916 63.6799 46.145 63.7276 46.5114C63.7754 46.8778 63.7505 47.25 63.6545 47.6068C63.5584 47.9635 63.393 48.2979 63.1677 48.5908C62.9424 48.8836 62.6616 49.1292 62.3414 49.3136C62.0212 49.4979 61.6678 49.6174 61.3014 49.6651Z" fill="white"/>
<path d="M75.3636 105.915C74.9931 105.972 74.615 105.954 74.2515 105.863C73.888 105.772 73.5463 105.609 73.2466 105.384C72.9469 105.159 72.6952 104.876 72.5063 104.553C72.3174 104.229 72.1952 103.871 72.1467 103.499C72.0982 103.127 72.1245 102.75 72.224 102.389C72.3235 102.027 72.4942 101.689 72.7261 101.395C72.9581 101.101 73.2465 100.855 73.5745 100.674C73.9025 100.493 74.2634 100.379 74.6361 100.339C75.3666 100.261 76.0987 100.471 76.6759 100.926C77.253 101.38 77.6294 102.043 77.7244 102.771C77.8195 103.5 77.6257 104.237 77.1845 104.824C76.7433 105.412 76.0897 105.803 75.3636 105.915Z" fill="white"/>
<path d="M75.3636 91.8525C74.9931 91.9095 74.615 91.892 74.2515 91.8008C73.888 91.7097 73.5463 91.5468 73.2466 91.3217C72.9469 91.0966 72.6952 90.8139 72.5063 90.4902C72.3174 90.1665 72.1952 89.8083 72.1467 89.4366C72.0982 89.065 72.1245 88.6874 72.224 88.326C72.3235 87.9647 72.4942 87.6269 72.7261 87.3324C72.9581 87.038 73.2465 86.7929 73.5745 86.6115C73.9025 86.4302 74.2634 86.3162 74.6361 86.2763C75.3666 86.198 76.0987 86.4087 76.6759 86.8634C77.253 87.318 77.6294 87.9804 77.7244 88.7089C77.8195 89.4374 77.6257 90.1742 77.1845 90.7617C76.7433 91.3492 76.0897 91.7407 75.3636 91.8525Z" fill="white"/>
<path d="M75.3638 77.79C74.9972 77.8377 74.6247 77.8128 74.2677 77.7167C73.9107 77.6205 73.5761 77.4549 73.2831 77.2295C72.9901 77.004 72.7443 76.723 72.5599 76.4026C72.3754 76.0821 72.2559 75.7285 72.2082 75.3619C72.1604 74.9952 72.1853 74.6228 72.2815 74.2658C72.3777 73.9088 72.5432 73.5742 72.7687 73.2812C72.9941 72.9881 73.2751 72.7424 73.5956 72.5579C73.916 72.3735 74.2697 72.254 74.6363 72.2062C75.3767 72.1098 76.1252 72.3114 76.717 72.7667C77.3088 73.2221 77.6954 73.8939 77.7919 74.6344C77.8884 75.3748 77.6868 76.1232 77.2314 76.715C76.776 77.3068 76.1042 77.6935 75.3638 77.79Z" fill="white"/>
<path d="M76.9874 62.9399C77.5131 62.4115 77.8076 61.6961 77.8062 60.9508C77.8048 60.2055 77.5076 59.4912 76.9799 58.9649C76.4541 58.4367 75.7401 58.1388 74.9947 58.1367C74.2494 58.1346 73.5337 58.4284 73.0049 58.9536C72.4797 59.4825 72.1859 60.1981 72.188 60.9435C72.1901 61.6888 72.488 62.4028 73.0162 62.9286C73.542 63.4568 74.256 63.7547 75.0013 63.7568C75.7466 63.7589 76.4623 63.4651 76.9912 62.9399H76.9874Z" fill="white"/>
<path d="M75.3639 49.6651C74.6239 49.7616 73.876 49.5602 73.2845 49.1052C72.6931 48.6502 72.3066 47.9788 72.2101 47.2389C72.1137 46.4989 72.3151 45.751 72.7701 45.1595C73.2251 44.5681 73.8964 44.1816 74.6364 44.0851C75.0028 44.0374 75.375 44.0622 75.7318 44.1583C76.0886 44.2544 76.4229 44.4198 76.7158 44.6451C77.0086 44.8704 77.2542 45.1512 77.4386 45.4714C77.6229 45.7916 77.7424 46.145 77.7901 46.5114C77.8379 46.8778 77.8131 47.25 77.717 47.6068C77.6209 47.9635 77.4555 48.2979 77.2302 48.5908C77.0049 48.8836 76.7241 49.1292 76.4039 49.3136C76.0837 49.4979 75.7303 49.6174 75.3639 49.6651Z" fill="white"/>
<path d="M100.312 100.312C99.5666 100.312 98.8512 100.609 98.3238 101.136C97.7963 101.664 97.5 102.379 97.5 103.125C97.5 103.871 97.7963 104.586 98.3238 105.114C98.8512 105.641 99.5666 105.938 100.312 105.938C101.058 105.938 101.774 105.641 102.301 105.114C102.829 104.586 103.125 103.871 103.125 103.125C103.125 102.379 102.829 101.664 102.301 101.136C101.774 100.609 101.058 100.312 100.312 100.312Z" fill="white"/>
<path d="M100.312 86.25C99.5666 86.25 98.8512 86.5463 98.3238 87.0738C97.7963 87.6012 97.5 88.3166 97.5 89.0625C97.5 89.8084 97.7963 90.5238 98.3238 91.0512C98.8512 91.5787 99.5666 91.875 100.312 91.875C101.058 91.875 101.774 91.5787 102.301 91.0512C102.829 90.5238 103.125 89.8084 103.125 89.0625C103.125 88.3166 102.829 87.6012 102.301 87.0738C101.774 86.5463 101.058 86.25 100.312 86.25Z" fill="white"/>
<path d="M100.312 72.1875C99.5666 72.1875 98.8512 72.4838 98.3238 73.0113C97.7963 73.5387 97.5 74.2541 97.5 75C97.5 75.7459 97.7963 76.4613 98.3238 76.9887C98.8512 77.5162 99.5666 77.8125 100.312 77.8125C101.058 77.8125 101.774 77.5162 102.301 76.9887C102.829 76.4613 103.125 75.7459 103.125 75C103.125 74.2541 102.829 73.5387 102.301 73.0113C101.774 72.4838 101.058 72.1875 100.312 72.1875Z" fill="white"/>
<path d="M89.0625 100.312C88.3166 100.312 87.6012 100.609 87.0738 101.136C86.5463 101.664 86.25 102.379 86.25 103.125C86.25 103.871 86.5463 104.586 87.0738 105.114C87.6012 105.641 88.3166 105.938 89.0625 105.938C89.8084 105.938 90.5238 105.641 91.0512 105.114C91.5787 104.586 91.875 103.871 91.875 103.125C91.875 102.379 91.5787 101.664 91.0512 101.136C90.5238 100.609 89.8084 100.312 89.0625 100.312Z" fill="white"/>
<path d="M89.0625 86.25C88.3166 86.25 87.6012 86.5463 87.0738 87.0738C86.5463 87.6012 86.25 88.3166 86.25 89.0625C86.25 89.8084 86.5463 90.5238 87.0738 91.0512C87.6012 91.5787 88.3166 91.875 89.0625 91.875C89.8084 91.875 90.5238 91.5787 91.0512 91.0512C91.5787 90.5238 91.875 89.8084 91.875 89.0625C91.875 88.3166 91.5787 87.6012 91.0512 87.0738C90.5238 86.5463 89.8084 86.25 89.0625 86.25Z" fill="white"/>
<path d="M89.0625 72.1875C88.3166 72.1875 87.6012 72.4838 87.0738 73.0113C86.5463 73.5387 86.25 74.2541 86.25 75C86.25 75.7459 86.5463 76.4613 87.0738 76.9887C87.6012 77.5162 88.3166 77.8125 89.0625 77.8125C89.8084 77.8125 90.5238 77.5162 91.0512 76.9887C91.5787 76.4613 91.875 75.7459 91.875 75C91.875 74.2541 91.5787 73.5387 91.0512 73.0113C90.5238 72.4838 89.8084 72.1875 89.0625 72.1875Z" fill="white"/>
<rect x="0.5" y="0.5" width="149" height="149" rx="11.5" stroke="#2D6DE9"/>
</svg>
