<svg width="150" height="150" viewBox="0 0 150 150" fill="none" xmlns="http://www.w3.org/2000/svg">
<rect x="0.773438" y="0.712891" width="148.271" height="148.271" rx="11.4417" fill="#2D6DE9"/>
<path d="M71.3156 84.8645H79.2457C92.901 86.5432 103.862 96.7807 106.43 109.963C107.061 113.2 104.328 115.898 101.03 115.898H49.5315C46.2339 115.898 43.5024 113.2 44.1366 109.964C45.2031 104.522 47.725 99.4203 51.4906 95.21C56.6008 89.4962 63.6501 85.8176 71.3156 84.8645ZM75.2807 80.7126C62.1366 80.7126 51.4906 70.2157 51.4906 57.2557C51.4906 44.2958 62.1366 33.7988 75.2807 33.7988C88.4247 33.7988 99.0708 44.2958 99.0708 57.2557C99.0708 70.2157 88.4247 80.7126 75.2807 80.7126Z" fill="#EEEEEE"/>
<rect x="0.773438" y="0.712891" width="148.271" height="148.271" rx="11.4417" stroke="#2D6DE9"/>
</svg>
