<svg width="150" height="150" viewBox="0 0 150 150" fill="none" xmlns="http://www.w3.org/2000/svg">
<rect x="0.5" y="0.5" width="149" height="149" rx="11.5" fill="#2D6DE9"/>
<mask id="path-2-outside-1_1030_74551" maskUnits="userSpaceOnUse" x="40.3359" y="38.0229" width="67" height="71" fill="black">
<rect fill="white" x="40.3359" y="38.0229" width="67" height="71"/>
<path fill-rule="evenodd" clip-rule="evenodd" d="M103.075 46.7052L105.776 46.986L105.381 48.9976C101.047 71.0806 90.1256 91.333 74.056 107.088V107.089C74.0559 107.088 74.0558 107.088 74.0556 107.088C74.0555 107.088 74.0555 107.088 74.0554 107.088V107.088C57.9859 91.3332 47.0649 71.0808 42.7308 48.9979L42.3359 46.9862L45.0363 46.7055C54.9465 45.675 64.6925 43.4308 74.0554 40.0234V40.0229C83.4185 43.4305 93.1648 45.6747 103.075 46.7052Z"/>
</mask>
<path fill-rule="evenodd" clip-rule="evenodd" d="M103.075 46.7052L105.776 46.986L105.381 48.9976C101.047 71.0806 90.1256 91.333 74.056 107.088V107.089C74.0559 107.088 74.0558 107.088 74.0556 107.088C74.0555 107.088 74.0555 107.088 74.0554 107.088V107.088C57.9859 91.3332 47.0649 71.0808 42.7308 48.9979L42.3359 46.9862L45.0363 46.7055C54.9465 45.675 64.6925 43.4308 74.0554 40.0234V40.0229C83.4185 43.4305 93.1648 45.6747 103.075 46.7052Z" fill="#131740"/>
<path d="M105.776 46.986L107.24 47.2735C107.321 46.8621 107.225 46.4357 106.976 46.0985C106.726 45.7614 106.347 45.5447 105.93 45.5013L105.776 46.986ZM103.075 46.7052L103.23 45.2205L103.23 45.2205L103.075 46.7052ZM105.381 48.9976L103.916 48.7101L103.916 48.7101L105.381 48.9976ZM74.056 107.088L73.011 106.022C72.7247 106.303 72.5633 106.687 72.5633 107.088H74.056ZM74.056 107.089L73.0223 108.165C73.4538 108.58 74.091 108.696 74.6413 108.462C75.1916 108.227 75.5488 107.687 75.5488 107.089H74.056ZM74.0556 107.088L75.0894 106.011C74.5159 105.461 73.6115 105.456 73.0326 106.001L74.0556 107.088ZM74.0554 107.088H72.5627C72.5627 107.684 72.9167 108.222 73.4634 108.459C74.01 108.695 74.6448 108.583 75.0785 108.175L74.0554 107.088ZM74.0554 107.088H75.5481C75.5481 106.687 75.3868 106.303 75.1004 106.022L74.0554 107.088ZM42.7308 48.9979L44.1955 48.7104L42.7308 48.9979ZM42.3359 46.9862L42.1816 45.5015C41.7645 45.5449 41.385 45.7617 41.1357 46.0988C40.8864 46.4359 40.7904 46.8623 40.8712 47.2737L42.3359 46.9862ZM45.0363 46.7055L44.8819 45.2208L44.8819 45.2208L45.0363 46.7055ZM74.0554 40.0234L74.5659 41.4261C75.1556 41.2115 75.5481 40.651 75.5481 40.0234H74.0554ZM74.0554 40.0229L74.5659 38.6202C74.1083 38.4537 73.5981 38.5209 73.1992 38.8002C72.8003 39.0795 72.5627 39.5359 72.5627 40.0229H74.0554ZM105.93 45.5013L103.23 45.2205L102.921 48.1899L105.621 48.4707L105.93 45.5013ZM106.845 49.2851L107.24 47.2735L104.311 46.6985L103.916 48.7101L106.845 49.2851ZM75.1011 108.154C91.3859 92.1877 102.453 71.664 106.845 49.2851L103.916 48.7101C99.6399 70.4972 88.8652 90.4782 73.011 106.022L75.1011 108.154ZM72.5633 107.088V107.089H75.5488V107.088H72.5633ZM75.0898 106.012C75.0958 106.017 75.1006 106.022 75.1034 106.025C75.106 106.027 75.1082 106.03 75.1078 106.029C75.1078 106.029 75.1078 106.029 75.1077 106.029C75.1077 106.029 75.1077 106.029 75.1077 106.029C75.1076 106.029 75.1076 106.029 75.1075 106.029C75.1073 106.029 75.107 106.028 75.1066 106.028C75.1059 106.027 75.1047 106.026 75.1032 106.025C75.1003 106.022 75.0954 106.017 75.0894 106.011L73.0219 108.165C73.0159 108.159 73.0111 108.154 73.0083 108.152C73.0057 108.149 73.0035 108.147 73.0039 108.147C73.0039 108.147 73.0039 108.147 73.0039 108.147C73.0039 108.147 73.0039 108.147 73.004 108.147C73.004 108.148 73.0041 108.148 73.0042 108.148C73.0044 108.148 73.0047 108.148 73.0051 108.149C73.0058 108.149 73.007 108.15 73.0085 108.152C73.0114 108.155 73.0162 108.16 73.0223 108.165L75.0898 106.012ZM75.0785 108.175C75.0895 108.165 75.0981 108.156 75.1031 108.152C75.1057 108.149 75.1078 108.147 75.1091 108.146C75.1097 108.145 75.1102 108.145 75.1105 108.144C75.1107 108.144 75.1108 108.144 75.1109 108.144C75.1109 108.144 75.111 108.144 75.111 108.144C75.111 108.144 75.111 108.144 75.111 108.144C75.111 108.144 75.111 108.144 75.111 108.144C75.111 108.144 75.111 108.144 75.111 108.144C75.1112 108.144 75.1102 108.145 75.1091 108.146C75.1079 108.147 75.1058 108.149 75.1032 108.151C75.0983 108.156 75.0896 108.165 75.0787 108.175L73.0326 106.001C73.0216 106.011 73.0129 106.02 73.0079 106.025C73.0053 106.027 73.0032 106.029 73.002 106.031C73.0013 106.031 73.0008 106.032 73.0005 106.032C73.0003 106.032 73.0002 106.032 73.0001 106.033C73.0001 106.033 73.0001 106.033 73 106.033C73 106.033 73 106.033 73 106.033C73 106.033 73 106.033 73 106.033C73 106.033 73 106.033 73 106.033C72.9998 106.033 73.0008 106.032 73.0019 106.031C73.0032 106.03 73.0052 106.028 73.0078 106.025C73.0128 106.02 73.0214 106.012 73.0324 106.001L75.0785 108.175ZM72.5627 107.088V107.088H75.5481V107.088H72.5627ZM75.1004 106.022C59.2462 90.4784 48.4716 70.4974 44.1955 48.7104L41.266 49.2853C45.6582 71.6642 56.7255 92.188 73.0104 108.154L75.1004 106.022ZM44.1955 48.7104L43.8007 46.6988L40.8712 47.2737L41.266 49.2853L44.1955 48.7104ZM42.4903 48.471L45.1906 48.1902L44.8819 45.2208L42.1816 45.5015L42.4903 48.471ZM45.1906 48.1902C55.2225 47.1471 65.0881 44.8753 74.5659 41.4261L73.5449 38.6207C64.2969 41.9863 54.6705 44.2029 44.8819 45.2208L45.1906 48.1902ZM72.5627 40.0229V40.0234H75.5481V40.0229H72.5627ZM103.23 45.2205C93.4408 44.2027 83.8141 41.986 74.5659 38.6202L73.5449 41.4257C83.0229 44.875 92.8888 47.1468 102.921 48.1899L103.23 45.2205Z" fill="white" mask="url(#path-2-outside-1_1030_74551)"/>
<path fill-rule="evenodd" clip-rule="evenodd" d="M79.7465 72.925L78.2853 70.3618L75.7507 71.8438L68.1529 76.2837C66.7574 77.0976 66.2743 78.9076 67.0794 80.3228L68.5405 82.8859L71.0751 81.4039L78.673 76.964C80.0685 76.1501 80.5516 74.3401 79.7465 72.925Z" fill="#4C58DA"/>
<path fill-rule="evenodd" clip-rule="evenodd" d="M81.924 61.421L80.1707 58.3477L77.1291 60.1212L68.0165 65.4479C66.3407 66.4258 65.7622 68.6002 66.7343 70.2948L68.4877 73.3681L71.5292 71.5946L80.6418 66.2679C82.3176 65.29 82.8961 63.1156 81.924 61.421Z" fill="#4C58DA"/>
<path fill-rule="evenodd" clip-rule="evenodd" d="M75.6618 69.1775L68.4934 73.3684L71.1234 74.5528L78.2978 70.3619L75.6678 69.1775H75.6618Z" fill="#132C5C"/>
<rect x="0.5" y="0.5" width="149" height="149" rx="11.5" stroke="#164092"/>
</svg>
