<svg width="150" height="150" viewBox="0 0 150 150" fill="none" xmlns="http://www.w3.org/2000/svg">
<path d="M64.7793 87.0639C67.423 86.1456 70.1112 88.3053 70.1112 91.4108V96.2588V103.901C70.1112 106.606 72.3041 108.799 75.0092 108.799C77.7142 108.799 79.9071 106.606 79.9071 103.901V91.4014C79.9071 88.2985 82.5922 86.1394 85.2329 87.0553C95.4331 90.5932 103.168 99.2744 105.243 109.928C105.737 112.465 103.603 114.752 100.758 114.752H49.26C46.4158 114.752 44.2838 112.466 44.7807 109.931C45.8149 104.653 48.2608 99.7042 51.9145 95.619C55.4144 91.7057 59.8529 88.7749 64.7793 87.0639ZM75.0092 79.5668C62.368 79.5668 52.152 69.4751 52.152 57.0428C52.152 44.6105 62.368 34.5189 75.0092 34.5189C87.6504 34.5189 97.8663 44.6105 97.8663 57.0428C97.8663 69.4751 87.6504 79.5668 75.0092 79.5668Z" stroke="white" stroke-width="1.86589"/>
<rect x="0.5" y="0.5" width="149" height="149" rx="11.5" stroke="#2D6DE9"/>
</svg>
