<svg width="24" height="24" viewBox="0 0 24 24" fill="none" xmlns="http://www.w3.org/2000/svg">
<g clip-path="url(#clip0_1053_62410)">
<g clip-path="url(#clip1_1053_62410)">
<path fill-rule="evenodd" clip-rule="evenodd" d="M2 2H22V22H2V2Z" fill="#229E45"/>
<path fill-rule="evenodd" clip-rule="evenodd" d="M12.2109 17.8359L21.1875 12.0078L12.1562 6.16406L3.14453 12.0234L12.207 17.8359H12.2109Z" fill="#F8E509"/>
<path fill-rule="evenodd" clip-rule="evenodd" d="M16.1212 12.0004C16.137 12.509 16.0504 13.0156 15.8665 13.4901C15.6827 13.9645 15.4053 14.3972 15.0509 14.7624C14.6966 15.1276 14.2724 15.4178 13.8036 15.6158C13.3349 15.8138 12.8311 15.9156 12.3223 15.915C11.8134 15.9145 11.3098 15.8117 10.8415 15.6127C10.3732 15.4138 9.94959 15.1227 9.59597 14.7568C9.24234 14.3909 8.96587 13.9576 8.78299 13.4828C8.60011 13.0079 8.51454 12.5011 8.53138 11.9926C8.56399 11.0072 8.97862 10.0731 9.68757 9.38796C10.3965 8.7028 11.3442 8.32028 12.3301 8.32129C13.316 8.32231 14.2629 8.70678 14.9704 9.3934C15.6779 10.08 16.0906 11.0149 16.1212 12.0004Z" fill="#2B49A3"/>
<path fill-rule="evenodd" clip-rule="evenodd" d="M11.0742 14.2734L10.957 14.2031L10.8359 14.2656L10.8633 14.1289L10.7695 14.0312L10.9023 14.0156L10.9648 13.8906L11.0234 14.0195L11.1562 14.043L11.0547 14.1367M13.6211 14.918L13.5039 14.8477L13.3789 14.9102L13.4062 14.7734L13.3125 14.6758L13.4492 14.6602L13.5117 14.5352L13.5664 14.6641L13.6992 14.6875L13.6016 14.7812M12.5234 13.8867L12.4219 13.8281L12.3164 13.8789L12.3398 13.7617L12.2617 13.6758L12.375 13.6641L12.4297 13.5586L12.4766 13.668L12.5938 13.6875L12.5078 13.7656M15.0938 13.5156L14.9922 13.457L14.8906 13.5078L14.9141 13.3945L14.8359 13.3125L14.9492 13.2969L15 13.1953L15.0508 13.3008L15.1641 13.3203L15.0781 13.3984M12.4766 12.7461L12.3594 12.6758L12.2383 12.7383L12.2656 12.6016L12.1719 12.5039L12.3047 12.4883L12.3672 12.3672L12.4258 12.4922L12.5586 12.5156L12.457 12.6094M9.34375 11.5703L9.22656 11.5L9.10937 11.5625L9.13281 11.4258L9.03906 11.3281L9.17578 11.3125L9.23828 11.1875L9.29297 11.3164L9.42578 11.3398L9.32812 11.4336M9.72266 13.1328L9.60547 13.0664L9.48438 13.125L9.51172 12.9922L9.41797 12.8906L9.55078 12.875L9.61328 12.7578L9.67187 12.8789L9.80469 12.9062L9.70312 12.9961M13.6328 10.9922L13.5312 10.9336L13.4219 10.9844L13.4453 10.8672L13.3672 10.7773L13.4844 10.7656L13.5391 10.6562L13.5898 10.7695L13.707 10.7891L13.6172 10.8711M13.4219 12.0117L13.3281 11.9609L13.2461 12L13.2617 11.9062L13.1992 11.8398L13.293 11.8281L13.3359 11.7422L13.375 11.832L13.4688 11.8477L13.3984 11.9102M9.16406 13.4141L9.08594 13.3672L9.00391 13.4062L9.01953 13.3164L8.95703 13.25L9.05078 13.2422L9.08984 13.1641L9.12891 13.2422L9.21875 13.2617L9.15234 13.3242M15.1133 13.7734L15.0469 13.7422L14.9805 13.7695L14.9961 13.7031L14.9453 13.6523L15.0195 13.6445L15.0547 13.5859L15.082 13.6484L15.1562 13.6602L15.1016 13.707" fill="#FFFFEF"/>
<path fill-rule="evenodd" clip-rule="evenodd" d="M9.16797 13.418L9.08984 13.3711L9.00781 13.4102L9.02734 13.3203L8.96094 13.2539L9.05078 13.2461L9.09375 13.168L9.13281 13.2461L9.22266 13.2656L9.15625 13.3281" fill="#FFFFEF"/>
<path fill-rule="evenodd" clip-rule="evenodd" d="M9.16797 13.418L9.08984 13.3711L9.00781 13.4102L9.02734 13.3203L8.96094 13.2539L9.05078 13.2461L9.09375 13.168L9.13281 13.2461L9.22266 13.2656L9.15625 13.3281M10.4141 13.418L10.3359 13.3711L10.2578 13.4102L10.2734 13.3203L10.2109 13.2539L10.3008 13.2461L10.3398 13.1641L10.3789 13.2461L10.4688 13.2656L10.4023 13.3281M10.2578 13.8359L10.1797 13.7891L10.1016 13.8281L10.1172 13.7383L10.0547 13.6719L10.1445 13.6602L10.1836 13.582L10.2227 13.6602L10.3125 13.6797L10.2461 13.7422M12.8516 13.0781L12.7734 13.0312L12.6914 13.0703L12.707 12.9805L12.6445 12.9141L12.7344 12.9063L12.7773 12.8242L12.8164 12.9063L12.9023 12.9219L12.8359 12.9844M12.0898 13.0781L12.0117 13.0312L11.9297 13.0703L11.9492 12.9805L11.8867 12.9141L11.9766 12.9063L12.0156 12.8242L12.0547 12.9063L12.1445 12.9219L12.0781 12.9844M10.0273 12.8125L9.98047 12.7852L9.92969 12.8086L9.9375 12.75L9.89844 12.7109L9.95703 12.7031L9.98437 12.6523L10.0039 12.707L10.0625 12.7148L10.0234 12.7539M15.0156 14.1094L14.9375 14.0664L14.8555 14.1055L14.875 14.0156L14.8125 13.9492L14.9023 13.9375L14.9414 13.8594L14.9805 13.9375L15.0703 13.957L15.0039 14.0195M14.3789 14.1914L14.3164 14.1523L14.25 14.1914L14.2656 14.1133L14.2109 14.0586L14.2891 14.0508L14.3203 13.9844L14.3516 14.0508L14.4297 14.0664L14.3711 14.1172M14.6836 14.1875L14.6211 14.1484L14.5586 14.1836L14.5703 14.1133L14.5234 14.0625L14.5938 14.0547L14.625 13.9922L14.6523 14.0547L14.7227 14.0664L14.6719 14.1172M15.5391 13.4375L15.4805 13.4023L15.418 13.4336L15.4336 13.3672L15.3867 13.3164L15.4531 13.3086L15.4844 13.25L15.5117 13.3125L15.5781 13.3242L15.5273 13.3711M14.3828 14.6133L14.3047 14.5703L14.2266 14.6094L14.2461 14.5234L14.1836 14.4648L14.2695 14.4531L14.3125 14.3789L14.3516 14.457L14.4336 14.4727L14.3711 14.5273M14.3867 14.9531L14.3164 14.9141L14.2461 14.9492L14.2617 14.8633L14.207 14.8047L14.2852 14.793L14.3242 14.7188L14.3555 14.7969L14.4336 14.8125L14.375 14.8672M13.8086 14.1875L13.75 14.1523L13.6875 14.1836L13.7031 14.1133L13.6562 14.0664L13.7227 14.0586L13.7539 13.9961L13.7813 14.0586L13.8477 14.0703L13.7969 14.1172M13.2695 14.1875L13.2109 14.1523L13.1484 14.1836L13.1641 14.1133L13.1172 14.0664L13.1836 14.0586L13.2148 13.9961L13.2422 14.0586L13.3086 14.0703L13.2617 14.1172M12.3516 13.3828L12.293 13.3477L12.2305 13.3789L12.2461 13.3125L12.1992 13.2617L12.2656 13.2539L12.2969 13.1953L12.3242 13.2578L12.3906 13.2695L12.3398 13.3125M12.4531 15.0117L12.4023 14.9844L12.3516 15.0117L12.3633 14.9531L12.3242 14.9141L12.3789 14.9023L12.4062 14.8516L12.4297 14.9062L12.4883 14.9141L12.4453 14.9531M11.0703 12.375L10.9531 12.3086L10.832 12.3672L10.8594 12.2344L10.7656 12.1328L10.8984 12.1172L10.9609 11.9961L11.0195 12.1211L11.1523 12.1445L11.0508 12.2383" fill="#FFFFEF"/>
<path fill-rule="evenodd" clip-rule="evenodd" d="M15.8711 13.3669C15.9446 13.1754 16.0021 12.9781 16.043 12.7771C14.0273 11.0037 11.7773 10.0935 8.93359 10.281C8.83172 10.4801 8.74804 10.688 8.68359 10.9021C9.98819 10.7703 11.3059 10.922 12.5464 11.3468C13.7869 11.7715 14.921 12.4593 15.8711 13.363V13.3669Z" fill="white"/>
<path d="M14.9648 12.3672L15.0352 12.4062C15.0242 12.428 15.0214 12.4529 15.0273 12.4766C15.0312 12.4922 15.0469 12.5117 15.0664 12.5234C15.0898 12.5391 15.1094 12.5469 15.1289 12.5469C15.1445 12.5469 15.1602 12.5352 15.168 12.5234C15.1719 12.5156 15.1758 12.5078 15.1719 12.4961L15.1602 12.4648L15.1133 12.4141C15.0884 12.3887 15.0697 12.358 15.0586 12.3242C15.0518 12.2988 15.0543 12.2718 15.0658 12.2481C15.0773 12.2244 15.0969 12.2057 15.1211 12.1953C15.1419 12.1861 15.1651 12.1834 15.1875 12.1875C15.2157 12.1936 15.2423 12.2056 15.2656 12.2227C15.2995 12.2465 15.3264 12.2788 15.3438 12.3164C15.3485 12.3337 15.3492 12.3519 15.3458 12.3695C15.3424 12.3871 15.335 12.4037 15.3242 12.418L15.2539 12.375C15.2617 12.3555 15.2656 12.3359 15.2617 12.3203C15.2578 12.3086 15.2422 12.293 15.2227 12.2813C15.2031 12.2656 15.1836 12.2617 15.168 12.2617C15.1634 12.2619 15.159 12.263 15.155 12.265C15.1509 12.267 15.1474 12.2699 15.1445 12.2734C15.1418 12.2774 15.1401 12.2819 15.1394 12.2867C15.1387 12.2914 15.1391 12.2962 15.1406 12.3008C15.1406 12.3164 15.1602 12.3398 15.1875 12.3672L15.2461 12.4453C15.2567 12.4648 15.2617 12.4868 15.2603 12.5089C15.2589 12.5311 15.2513 12.5524 15.2383 12.5703C15.2246 12.5897 15.2056 12.6046 15.1836 12.6133C15.1604 12.6239 15.1343 12.6266 15.1094 12.6211C15.0797 12.6135 15.0519 12.6003 15.0273 12.582C14.9904 12.5599 14.9627 12.5252 14.9492 12.4844C14.9375 12.4492 14.9414 12.4102 14.9648 12.3672ZM14.6211 12.1445L14.6992 12.1836C14.6901 12.2031 14.6873 12.225 14.6914 12.2461C14.6953 12.2656 14.7109 12.2852 14.7305 12.2969C14.7539 12.3125 14.7734 12.3164 14.793 12.3125C14.8086 12.3125 14.8242 12.3047 14.832 12.2891C14.8357 12.2818 14.8371 12.2737 14.8359 12.2656C14.8359 12.2539 14.832 12.2461 14.8203 12.2344L14.7734 12.1836C14.7477 12.1597 14.7277 12.1303 14.7148 12.0977C14.7097 12.0821 14.708 12.0657 14.7101 12.0495C14.7121 12.0332 14.7177 12.0177 14.7266 12.0039C14.7382 11.9867 14.7544 11.9732 14.7734 11.9648C14.7943 11.9558 14.8174 11.9531 14.8398 11.957C14.8633 11.957 14.8867 11.9688 14.918 11.9883C14.957 12.0156 14.9883 12.043 14.9961 12.0781C15.0019 12.0948 15.0039 12.1127 15.0019 12.1303C14.9999 12.1478 14.9939 12.1647 14.9844 12.1797L14.9102 12.1367C14.9219 12.1172 14.9219 12.0977 14.918 12.0859C14.9102 12.0703 14.8984 12.0586 14.8789 12.0469C14.8621 12.0339 14.8415 12.027 14.8203 12.0273C14.8155 12.0279 14.8108 12.0297 14.8067 12.0324C14.8027 12.0351 14.7993 12.0387 14.7969 12.043C14.7948 12.0472 14.7937 12.0519 14.7937 12.0566C14.7937 12.0614 14.7948 12.0661 14.7969 12.0703C14.7969 12.082 14.8164 12.1055 14.8437 12.1367C14.875 12.1641 14.8945 12.1914 14.9062 12.207C14.9183 12.2265 14.9243 12.2492 14.9236 12.2721C14.9229 12.295 14.9155 12.3172 14.9023 12.3359C14.889 12.3562 14.8702 12.3721 14.848 12.3818C14.8258 12.3915 14.8012 12.3946 14.7773 12.3906C14.7467 12.3847 14.7175 12.3727 14.6914 12.3555C14.654 12.3347 14.625 12.3016 14.6094 12.2617C14.5983 12.2226 14.6024 12.1807 14.6211 12.1445ZM14.1992 12.0273L14.418 11.6758L14.6797 11.832L14.6406 11.8945L14.4531 11.7773L14.4023 11.8555L14.582 11.9648L14.543 12.0273L14.3672 11.918L14.3086 12.0156L14.5039 12.1328L14.4688 12.1953L14.1992 12.0312V12.0273ZM13.582 11.5234L13.6172 11.4609L13.7734 11.5469L13.6992 11.6914C13.6359 11.7055 13.5696 11.6972 13.5117 11.668C13.4768 11.6498 13.4472 11.6229 13.4258 11.5898C13.4051 11.56 13.3942 11.5245 13.3945 11.4883C13.3945 11.4492 13.4062 11.4141 13.4258 11.3789C13.4438 11.3428 13.4707 11.3119 13.5039 11.2891C13.5312 11.2656 13.5703 11.2539 13.6094 11.2539C13.6367 11.2539 13.6719 11.2656 13.707 11.2813C13.7455 11.2993 13.7771 11.3295 13.7969 11.3672C13.8125 11.3984 13.8164 11.4336 13.8086 11.4727L13.7266 11.4492C13.731 11.4294 13.7282 11.4086 13.7187 11.3906C13.7084 11.3715 13.6919 11.3563 13.6719 11.3477C13.658 11.3391 13.6425 11.3336 13.6263 11.3316C13.6101 11.3295 13.5937 11.331 13.5781 11.3359C13.5508 11.3477 13.5234 11.375 13.5 11.4141C13.481 11.45 13.4741 11.4911 13.4805 11.5313C13.4883 11.5625 13.5078 11.5859 13.543 11.6016L13.5937 11.6172H13.6445L13.668 11.5703L13.582 11.5234ZM10.8945 10.8594L10.957 10.4453L11.082 10.4648L11.1133 10.7578L11.2305 10.4844L11.3516 10.5039L11.293 10.918L11.2148 10.9063L11.2617 10.582L11.1328 10.8945L11.0547 10.8828L11.0195 10.543L10.9727 10.8711L10.8945 10.8594ZM10.4766 10.8086L10.5156 10.3945L10.8203 10.4219L10.8164 10.4922L10.5898 10.4727L10.582 10.5625L10.7891 10.582L10.7852 10.6523L10.5781 10.6328L10.5664 10.75L10.7969 10.7695L10.7891 10.8398L10.4766 10.8086Z" fill="#309E3A"/>
<path d="M9.08539 10.5465C9.08539 10.5074 9.0932 10.4684 9.10492 10.441L9.14398 10.3863L9.20257 10.3473C9.23143 10.3373 9.26199 10.3334 9.29242 10.3355C9.31953 10.3354 9.34638 10.3408 9.37126 10.3516C9.39614 10.3623 9.41851 10.3782 9.43695 10.398C9.47601 10.4371 9.48773 10.4879 9.48773 10.5543C9.48773 10.6246 9.46429 10.6754 9.42914 10.7105C9.40958 10.7295 9.38627 10.7442 9.3607 10.7536C9.33514 10.763 9.30789 10.767 9.2807 10.7652C9.25387 10.7659 9.2272 10.7611 9.20233 10.751C9.17746 10.7409 9.15494 10.7258 9.13617 10.7066C9.11686 10.6858 9.10232 10.6611 9.09355 10.6341C9.08478 10.6071 9.08199 10.5786 9.08539 10.5504V10.5465Z" fill="#309E3A"/>
<path d="M9.17188 10.5469C9.17188 10.5938 9.17969 10.6328 9.20312 10.6563C9.22266 10.6836 9.25 10.6953 9.28125 10.6953C9.29721 10.6956 9.31307 10.6927 9.32785 10.6866C9.34263 10.6806 9.35601 10.6716 9.36719 10.6602C9.38672 10.6367 9.39844 10.6016 9.40234 10.5547C9.40234 10.5039 9.39453 10.4688 9.37109 10.4453C9.36162 10.4336 9.34974 10.4241 9.33626 10.4173C9.32279 10.4106 9.30803 10.4068 9.29297 10.4062C9.25391 10.4062 9.22656 10.418 9.20703 10.4414C9.18359 10.4648 9.17188 10.5 9.16797 10.5469H9.17188Z" fill="#F7FFFF"/>
<path d="M9.57812 10.7656L9.58203 10.3477H9.75781C9.80469 10.3477 9.83594 10.3555 9.85547 10.3633C9.875 10.3711 9.89453 10.3828 9.90234 10.4023C9.91016 10.4219 9.92188 10.4414 9.92188 10.4688C9.92188 10.5 9.91016 10.5234 9.89453 10.5469C9.875 10.5664 9.84766 10.5781 9.80859 10.5859C9.82812 10.5938 9.84375 10.6055 9.85547 10.6172L9.90234 10.6875L9.95313 10.7656H9.85156L9.79297 10.6758C9.77866 10.654 9.76301 10.6331 9.74609 10.6133C9.73957 10.6064 9.73156 10.601 9.72266 10.5977C9.71009 10.5932 9.69693 10.5905 9.68359 10.5898H9.66406V10.7656H9.57812Z" fill="#309E3A"/>
<path d="M9.66406 10.5234H9.72656C9.7525 10.5267 9.77875 10.5267 9.80469 10.5234L9.82422 10.5039C9.83203 10.4961 9.83594 10.4844 9.83594 10.4727C9.83594 10.457 9.83203 10.4453 9.82422 10.4375C9.81598 10.4288 9.80491 10.4232 9.79297 10.4219H9.66797V10.5234H9.66406Z" fill="white"/>
<path d="M10.0547 10.3672L10.207 10.375C10.2335 10.3754 10.2598 10.3793 10.2852 10.3867C10.3074 10.3951 10.3274 10.4085 10.3438 10.4258C10.362 10.4474 10.3753 10.4727 10.3828 10.5C10.3906 10.5273 10.3906 10.5586 10.3906 10.5977C10.3918 10.6276 10.3865 10.6574 10.375 10.685C10.3635 10.7127 10.3462 10.7375 10.3242 10.7578C10.3086 10.7695 10.2891 10.7813 10.2656 10.7891H10.1875L10.0312 10.7852L10.0547 10.3672Z" fill="#309E3A"/>
<path d="M10.1328 10.4414L10.1211 10.7148L10.1836 10.7227H10.2344L10.2695 10.7031C10.2813 10.6953 10.2852 10.6836 10.293 10.6641L10.3047 10.5859L10.3008 10.5156C10.293 10.4961 10.2891 10.4844 10.2773 10.4766C10.2669 10.465 10.2533 10.4569 10.2383 10.4531C10.2164 10.4485 10.1942 10.4459 10.1719 10.4453H10.1328V10.4414Z" fill="white"/>
<path d="M12.0977 11.1133L12.1953 10.707L12.3242 10.7383C12.375 10.75 12.4062 10.7617 12.4219 10.7695C12.4414 10.7813 12.4609 10.7969 12.4688 10.8203C12.4805 10.8477 12.4805 10.875 12.4727 10.9063C12.4692 10.9264 12.4605 10.9453 12.4475 10.9611C12.4345 10.9768 12.4176 10.9889 12.3984 10.9961C12.385 11.0027 12.3704 11.0067 12.3555 11.0078C12.3264 11.0053 12.2976 11.0001 12.2695 10.9922L12.2148 10.9805L12.1758 11.1328L12.0977 11.1133Z" fill="#309E3A"/>
<path d="M12.2578 10.7969L12.2305 10.9141L12.2773 10.9219C12.3086 10.9297 12.332 10.9336 12.3437 10.9297C12.3546 10.9286 12.3648 10.9243 12.3731 10.9173C12.3815 10.9103 12.3876 10.9011 12.3906 10.8906L12.3867 10.8477C12.38 10.835 12.3689 10.8253 12.3555 10.8203L12.2969 10.8047L12.2578 10.7969Z" fill="white"/>
<path d="M12.4844 11.2305L12.6211 10.8359L12.7891 10.8945C12.8195 10.9031 12.8485 10.9163 12.875 10.9336C12.8906 10.9492 12.9023 10.9688 12.9102 10.9922C12.918 11.0156 12.9102 11.0352 12.9023 11.0586C12.8945 11.0898 12.875 11.1094 12.8516 11.1211C12.8381 11.1289 12.8232 11.134 12.8078 11.136C12.7924 11.138 12.7767 11.1369 12.7617 11.1328L12.793 11.1797L12.8164 11.2578L12.8359 11.3516L12.7422 11.3203L12.7148 11.2148C12.7087 11.1896 12.7009 11.1648 12.6914 11.1406C12.688 11.1317 12.6827 11.1237 12.6758 11.1172C12.6639 11.1086 12.6507 11.102 12.6367 11.0977L12.6211 11.0938L12.5625 11.2578L12.4844 11.2305Z" fill="#309E3A"/>
<path d="M12.6406 11.0312L12.6992 11.0508L12.7734 11.0703C12.7852 11.0703 12.793 11.0703 12.8008 11.0625L12.8203 11.0352V10.9961C12.8153 10.9859 12.8071 10.9776 12.7969 10.9727L12.7383 10.9531L12.6758 10.9297L12.6406 11.0312Z" fill="white"/>
<path d="M12.9734 11.2148C12.9833 11.1791 13.0006 11.1458 13.0242 11.1172C13.0359 11.0977 13.0554 11.0859 13.0749 11.0742C13.0942 11.0636 13.1155 11.0569 13.1374 11.0547C13.1648 11.0547 13.196 11.0547 13.2273 11.0664C13.2538 11.073 13.2786 11.0852 13.3001 11.102C13.3217 11.1188 13.3394 11.1399 13.3523 11.1641C13.3757 11.2109 13.3796 11.2695 13.3562 11.332C13.3497 11.3601 13.3378 11.3867 13.321 11.4101C13.3042 11.4336 13.283 11.4535 13.2585 11.4687C13.2344 11.4808 13.2081 11.4876 13.1812 11.489C13.1543 11.4903 13.1275 11.4861 13.1023 11.4766C13.0758 11.4699 13.051 11.4578 13.0294 11.441C13.0079 11.4242 12.9901 11.403 12.9773 11.3789C12.9543 11.3269 12.9529 11.2679 12.9734 11.2148Z" fill="#309E3A"/>
<path d="M13.0557 11.2386C13.0439 11.2815 13.0439 11.3167 13.0557 11.3479C13.0713 11.3792 13.0947 11.3987 13.126 11.4104C13.1572 11.4183 13.1846 11.4143 13.2119 11.3987C13.2393 11.3831 13.2627 11.3518 13.2783 11.305C13.29 11.2581 13.29 11.2229 13.2783 11.1917C13.2718 11.1773 13.262 11.1645 13.2499 11.1544C13.2377 11.1442 13.2234 11.137 13.208 11.1331C13.1931 11.1283 13.1773 11.1268 13.1618 11.1288C13.1462 11.1308 13.1313 11.1363 13.1182 11.1448C13.0908 11.1604 13.0713 11.1917 13.0557 11.2386Z" fill="white"/>
<path d="M13.7852 11.7969L13.9766 11.4258L14.1328 11.5039C14.1719 11.5273 14.1992 11.543 14.2109 11.5586C14.2266 11.5781 14.2344 11.5977 14.2383 11.6172C14.2422 11.6367 14.2383 11.6641 14.2227 11.6836C14.2109 11.7109 14.1914 11.7305 14.1641 11.7422C14.1367 11.75 14.1094 11.75 14.0742 11.7383C14.0859 11.7539 14.0938 11.7734 14.0977 11.7891L14.1094 11.8711L14.1172 11.9687L14.0273 11.9219L14.0156 11.8125L14.0039 11.7344C14.0005 11.7255 13.9952 11.7175 13.9883 11.7109C13.9778 11.7014 13.966 11.6934 13.9531 11.6875L13.9375 11.6797L13.8594 11.8359L13.7852 11.7969Z" fill="#309E3A"/>
<path d="M13.9688 11.6211L14.0234 11.6484L14.0938 11.6797C14.1055 11.6797 14.1133 11.6797 14.1211 11.6719C14.1316 11.6664 14.1402 11.6579 14.1458 11.6474C14.1514 11.637 14.1537 11.6251 14.1523 11.6133C14.1481 11.6016 14.1398 11.5919 14.1289 11.5859C14.1124 11.5749 14.0954 11.5645 14.0781 11.5547L14.0195 11.5273L13.9688 11.6211Z" fill="white"/>
<path d="M15.3287 12.5587C15.3522 12.5196 15.3756 12.4962 15.4069 12.4805C15.4259 12.4678 15.4471 12.4586 15.4694 12.4532C15.49 12.4492 15.5112 12.4492 15.5319 12.4532C15.5592 12.4571 15.5905 12.4688 15.6178 12.4923C15.6409 12.5064 15.6608 12.5251 15.6763 12.5473C15.6917 12.5695 15.7024 12.5946 15.7076 12.6212C15.7133 12.678 15.698 12.735 15.6647 12.7813C15.6498 12.8065 15.6301 12.8285 15.6066 12.846C15.5831 12.8634 15.5564 12.876 15.5279 12.8829C15.5015 12.8878 15.4743 12.8873 15.4481 12.8812C15.4219 12.8752 15.3972 12.8638 15.3756 12.8477C15.3525 12.8336 15.3326 12.8149 15.3171 12.7927C15.3017 12.7705 15.291 12.7454 15.2858 12.7188C15.2814 12.6909 15.2826 12.6623 15.2893 12.6349C15.296 12.6074 15.3081 12.5815 15.3248 12.5587H15.3287Z" fill="#309E3A"/>
<path d="M15.3992 12.6014C15.3757 12.6404 15.364 12.6795 15.3679 12.7107C15.3706 12.7265 15.3765 12.7416 15.3852 12.7551C15.394 12.7685 15.4054 12.78 15.4187 12.7889C15.4311 12.7974 15.4452 12.8033 15.46 12.806C15.4748 12.8087 15.49 12.8082 15.5046 12.8045C15.5359 12.7967 15.5671 12.7732 15.5945 12.7303C15.6218 12.6912 15.6336 12.656 15.6257 12.6248C15.6257 12.5935 15.6062 12.5701 15.5789 12.5467C15.5515 12.5232 15.5203 12.5232 15.489 12.531C15.4578 12.5389 15.4304 12.5623 15.4031 12.6014H15.3992Z" fill="white"/>
<path d="M11.625 10.9453L11.6914 10.6484L11.9102 10.6992L11.8984 10.75L11.7422 10.7109L11.7266 10.7773L11.8711 10.8125L11.8594 10.8633L11.7148 10.8242L11.6953 10.9063L11.8594 10.9453L11.8477 10.9961L11.625 10.9453Z" fill="#309E3A"/>
</g>
</g>
<defs>
<clipPath id="clip0_1053_62410">
<rect width="24" height="24" fill="white"/>
</clipPath>
<clipPath id="clip1_1053_62410">
<rect x="2" y="2" width="20" height="20" rx="10" fill="white"/>
</clipPath>
</defs>
</svg>
