<svg width="24" height="24" viewBox="0 0 24 24" fill="none" xmlns="http://www.w3.org/2000/svg">
<path d="M6.75 4.875C6.75 4.37772 6.55246 3.90081 6.20083 3.54917C5.84919 3.19754 5.37228 3 4.875 3C4.37772 3 3.90081 3.19754 3.54917 3.54917C3.19754 3.90081 3 4.37772 3 4.875C3 5.37228 3.19754 5.84919 3.54917 6.20083C3.90081 6.55246 4.37772 6.75 4.875 6.75C5.37228 6.75 5.84919 6.55246 6.20083 6.20083C6.55246 5.84919 6.75 5.37228 6.75 4.875Z" stroke="url(#paint0_linear_414_75740)"/>
<path d="M13.875 4.875C13.875 4.62877 13.8265 4.38495 13.7323 4.15747C13.638 3.92998 13.4999 3.72328 13.3258 3.54917C13.1517 3.37506 12.945 3.23695 12.7175 3.14273C12.49 3.0485 12.2462 3 12 3C11.7538 3 11.51 3.0485 11.2825 3.14273C11.055 3.23695 10.8483 3.37506 10.6742 3.54917C10.5001 3.72328 10.362 3.92998 10.2677 4.15747C10.1735 4.38495 10.125 4.62877 10.125 4.875C10.125 5.37228 10.3225 5.84919 10.6742 6.20083C11.0258 6.55246 11.5027 6.75 12 6.75C12.4973 6.75 12.9742 6.55246 13.3258 6.20083C13.6775 5.84919 13.875 5.37228 13.875 4.875Z" stroke="url(#paint1_linear_414_75740)"/>
<path d="M21 4.875C21 4.37772 20.8025 3.90081 20.4508 3.54917C20.0992 3.19754 19.6223 3 19.125 3C18.6277 3 18.1508 3.19754 17.7992 3.54917C17.4475 3.90081 17.25 4.37772 17.25 4.875C17.25 5.37228 17.4475 5.84919 17.7992 6.20083C18.1508 6.55246 18.6277 6.75 19.125 6.75C19.6223 6.75 20.0992 6.55246 20.4508 6.20083C20.8025 5.84919 21 5.37228 21 4.875Z" stroke="url(#paint2_linear_414_75740)"/>
<path d="M6.75 12C6.75 11.5027 6.55246 11.0258 6.20083 10.6742C5.84919 10.3225 5.37228 10.125 4.875 10.125C4.37772 10.125 3.90081 10.3225 3.54917 10.6742C3.19754 11.0258 3 11.5027 3 12C3 12.4973 3.19754 12.9742 3.54917 13.3258C3.90081 13.6775 4.37772 13.875 4.875 13.875C5.37228 13.875 5.84919 13.6775 6.20083 13.3258C6.55246 12.9742 6.75 12.4973 6.75 12Z" stroke="url(#paint3_linear_414_75740)"/>
<path d="M13.875 12C13.875 11.7538 13.8265 11.51 13.7323 11.2825C13.638 11.055 13.4999 10.8483 13.3258 10.6742C13.1517 10.5001 12.945 10.362 12.7175 10.2677C12.49 10.1735 12.2462 10.125 12 10.125C11.7538 10.125 11.51 10.1735 11.2825 10.2677C11.055 10.362 10.8483 10.5001 10.6742 10.6742C10.5001 10.8483 10.362 11.055 10.2677 11.2825C10.1735 11.51 10.125 11.7538 10.125 12C10.125 12.4973 10.3225 12.9742 10.6742 13.3258C11.0258 13.6775 11.5027 13.875 12 13.875C12.4973 13.875 12.9742 13.6775 13.3258 13.3258C13.6775 12.9742 13.875 12.4973 13.875 12Z" stroke="url(#paint4_linear_414_75740)"/>
<path d="M21 12C21 11.5027 20.8025 11.0258 20.4508 10.6742C20.0992 10.3225 19.6223 10.125 19.125 10.125C18.6277 10.125 18.1508 10.3225 17.7992 10.6742C17.4475 11.0258 17.25 11.5027 17.25 12C17.25 12.4973 17.4475 12.9742 17.7992 13.3258C18.1508 13.6775 18.6277 13.875 19.125 13.875C19.6223 13.875 20.0992 13.6775 20.4508 13.3258C20.8025 12.9742 21 12.4973 21 12Z" stroke="url(#paint5_linear_414_75740)"/>
<path d="M6.75 19.125C6.75 18.6277 6.55246 18.1508 6.20083 17.7992C5.84919 17.4475 5.37228 17.25 4.875 17.25C4.37772 17.25 3.90081 17.4475 3.54917 17.7992C3.19754 18.1508 3 18.6277 3 19.125C3 19.6223 3.19754 20.0992 3.54917 20.4508C3.90081 20.8025 4.37772 21 4.875 21C5.37228 21 5.84919 20.8025 6.20083 20.4508C6.55246 20.0992 6.75 19.6223 6.75 19.125Z" stroke="url(#paint6_linear_414_75740)"/>
<path d="M13.875 19.125C13.875 18.8788 13.8265 18.635 13.7323 18.4075C13.638 18.18 13.4999 17.9733 13.3258 17.7992C13.1517 17.6251 12.945 17.487 12.7175 17.3927C12.49 17.2985 12.2462 17.25 12 17.25C11.7538 17.25 11.51 17.2985 11.2825 17.3927C11.055 17.487 10.8483 17.6251 10.6742 17.7992C10.5001 17.9733 10.362 18.18 10.2677 18.4075C10.1735 18.635 10.125 18.8788 10.125 19.125C10.125 19.6223 10.3225 20.0992 10.6742 20.4508C11.0258 20.8025 11.5027 21 12 21C12.4973 21 12.9742 20.8025 13.3258 20.4508C13.6775 20.0992 13.875 19.6223 13.875 19.125Z" stroke="url(#paint7_linear_414_75740)"/>
<path d="M21 19.125C21 18.6277 20.8025 18.1508 20.4508 17.7992C20.0992 17.4475 19.6223 17.25 19.125 17.25C18.6277 17.25 18.1508 17.4475 17.7992 17.7992C17.4475 18.1508 17.25 18.6277 17.25 19.125C17.25 19.6223 17.4475 20.0992 17.7992 20.4508C18.1508 20.8025 18.6277 21 19.125 21C19.6223 21 20.0992 20.8025 20.4508 20.4508C20.8025 20.0992 21 19.6223 21 19.125Z" stroke="url(#paint8_linear_414_75740)"/>
<defs>
<linearGradient id="paint0_linear_414_75740" x1="3" y1="3.04723" x2="23.5746" y2="17.4878" gradientUnits="userSpaceOnUse">
<stop stop-color="#24C2EE"/>
<stop offset="1" stop-color="#682CA4"/>
</linearGradient>
<linearGradient id="paint1_linear_414_75740" x1="3" y1="3.04723" x2="23.5746" y2="17.4878" gradientUnits="userSpaceOnUse">
<stop stop-color="#24C2EE"/>
<stop offset="1" stop-color="#682CA4"/>
</linearGradient>
<linearGradient id="paint2_linear_414_75740" x1="3" y1="3.04723" x2="23.5746" y2="17.4878" gradientUnits="userSpaceOnUse">
<stop stop-color="#24C2EE"/>
<stop offset="1" stop-color="#682CA4"/>
</linearGradient>
<linearGradient id="paint3_linear_414_75740" x1="3" y1="3.04723" x2="23.5746" y2="17.4878" gradientUnits="userSpaceOnUse">
<stop stop-color="#24C2EE"/>
<stop offset="1" stop-color="#682CA4"/>
</linearGradient>
<linearGradient id="paint4_linear_414_75740" x1="3" y1="3.04723" x2="23.5746" y2="17.4878" gradientUnits="userSpaceOnUse">
<stop stop-color="#24C2EE"/>
<stop offset="1" stop-color="#682CA4"/>
</linearGradient>
<linearGradient id="paint5_linear_414_75740" x1="3" y1="3.04723" x2="23.5746" y2="17.4878" gradientUnits="userSpaceOnUse">
<stop stop-color="#24C2EE"/>
<stop offset="1" stop-color="#682CA4"/>
</linearGradient>
<linearGradient id="paint6_linear_414_75740" x1="3" y1="3.04723" x2="23.5746" y2="17.4878" gradientUnits="userSpaceOnUse">
<stop stop-color="#24C2EE"/>
<stop offset="1" stop-color="#682CA4"/>
</linearGradient>
<linearGradient id="paint7_linear_414_75740" x1="3" y1="3.04723" x2="23.5746" y2="17.4878" gradientUnits="userSpaceOnUse">
<stop stop-color="#24C2EE"/>
<stop offset="1" stop-color="#682CA4"/>
</linearGradient>
<linearGradient id="paint8_linear_414_75740" x1="3" y1="3.04723" x2="23.5746" y2="17.4878" gradientUnits="userSpaceOnUse">
<stop stop-color="#24C2EE"/>
<stop offset="1" stop-color="#682CA4"/>
</linearGradient>
</defs>
</svg>
