<svg width="24" height="24" viewBox="0 0 24 24" fill="none" xmlns="http://www.w3.org/2000/svg">
<path d="M10.5 20V20.5H11H13H13.5V20V14.65C16.7645 15.3124 19.2595 18.0961 19.4836 21.5H4.51668C4.62667 19.8534 5.27738 18.2837 6.37502 17.039C7.45715 15.8118 8.90704 14.9761 10.5 14.6508V20ZM12 12.5C8.96114 12.5 6.5 10.0389 6.5 7C6.5 3.96114 8.96114 1.5 12 1.5C15.0389 1.5 17.5 3.96114 17.5 7C17.5 10.0389 15.0389 12.5 12 12.5Z" stroke="url(#paint0_linear_1249_3866)"/>
<defs>
<linearGradient id="paint0_linear_1249_3866" x1="4" y1="1.0551" x2="25.2274" y2="12.4065" gradientUnits="userSpaceOnUse">
<stop stop-color="#24C2EE"/>
<stop offset="1" stop-color="#682CA4"/>
</linearGradient>
</defs>
</svg>
